<svg xmlns="http://www.w3.org/2000/svg" width="499" height="387" viewBox="0 0 499 387" version="1.1"><path d="M 245.713 18.422 C 235.564 21.152, 228 31.208, 228 41.974 C 228 46.440, 228.691 49.058, 231.103 53.735 L 234.206 59.751 225.373 70.455 C 216.910 80.712, 216.415 81.128, 213.521 80.426 C 211.859 80.024, 208.925 79.651, 207 79.597 C 202.966 79.485, 202.528 78.898, 198.029 67.573 L 194.943 59.805 198.418 55.959 C 202.580 51.352, 204.249 45.930, 203.080 40.811 C 199.737 26.165, 182.742 21.008, 172.814 31.627 C 169.310 35.374, 168 39.015, 168 45.005 L 168 49.880 155.752 56.390 L 143.504 62.899 140.799 60.307 C 137.554 57.198, 129.699 56.054, 124.991 58.004 C 112.970 62.983, 112.556 80.765, 124.331 86.353 C 127.384 87.801, 127.779 88.478, 128.350 93.230 C 128.698 96.128, 128.987 100.607, 128.991 103.183 C 128.999 107.173, 128.668 107.966, 126.750 108.549 C 125.513 108.925, 123.024 110.338, 121.220 111.690 C 119.417 113.041, 117.599 114.001, 117.182 113.823 C 116.764 113.646, 112.314 110.637, 107.292 107.138 C 98.470 100.991, 98.180 100.667, 98.690 97.520 C 100.001 89.444, 91.643 81.879, 83.801 84.045 C 73.746 86.821, 70.917 98.208, 78.605 104.958 C 81.301 107.325, 83.011 108, 86.312 108 C 88.646 108, 91.534 107.314, 92.732 106.475 C 94.789 105.034, 95.388 105.288, 103.704 111.126 C 108.542 114.523, 112.868 117.624, 113.317 118.018 C 113.766 118.411, 113.581 121.407, 112.907 124.674 L 111.680 130.614 101.090 132.394 C 95.265 133.373, 89.365 134.395, 87.978 134.666 C 85.808 135.090, 85.206 134.595, 83.675 131.125 C 81.405 125.980, 73.370 118.727, 68.236 117.189 C 55.239 113.295, 41.559 119.042, 35.850 130.794 C 33.050 136.556, 32.852 147.371, 35.436 153.335 C 37.586 158.297, 45.059 165.534, 49.571 167.023 C 52.927 168.131, 53.090 168.395, 52.803 172.240 C 52.509 176.169, 52.358 176.325, 47.721 177.498 C 39.482 179.580, 34.714 185.813, 34.714 194.500 C 34.714 203.162, 40.018 209.943, 48.588 212.235 C 52.708 213.337, 52.972 213.627, 53.589 217.745 C 53.948 220.136, 54.074 222.184, 53.870 222.296 C 48.682 225.150, 47.016 226.431, 44.530 229.476 C 42.017 232.552, 41.507 234.145, 41.220 239.806 C 40.823 247.652, 42.576 251.722, 48.371 256.412 C 51.274 258.762, 53.261 259.464, 57.979 259.805 C 65.640 260.359, 68.167 259.670, 72.533 255.837 C 77.492 251.483, 79.200 247.681, 79.200 241 C 79.200 235.254, 77.492 230.483, 74.566 228.055 C 73.705 227.340, 73.019 226.248, 73.041 225.628 C 73.064 225.007, 77.269 217.755, 82.386 209.512 C 91.645 194.597, 91.707 194.525, 95.113 194.818 C 99.101 195.162, 104.775 191.814, 106.721 187.970 C 108.371 184.708, 108.318 180.133, 106.591 176.824 C 105.239 174.232, 105.480 173.754, 114.153 161.824 C 120.550 153.024, 123.596 149.610, 124.806 149.884 C 125.738 150.096, 130.060 150.373, 134.410 150.502 L 142.321 150.735 144.241 154.478 C 145.597 157.121, 145.932 158.997, 145.379 160.861 C 144.949 162.312, 144.576 165.113, 144.549 167.084 C 144.507 170.185, 142.507 173.120, 129.725 188.834 C 116.481 205.118, 114.637 207, 111.930 207 C 107.955 207, 104 210.929, 104 214.878 C 104 216.536, 105.044 219.095, 106.365 220.673 C 108.545 223.279, 108.681 224.087, 108.096 231 C 107.388 239.377, 106.726 241, 104.018 241 C 101.604 241, 96.336 245.450, 94.464 249.069 C 92.206 253.436, 92.584 261.095, 95.250 265.001 C 101.546 274.224, 115.454 274.224, 121.750 265.001 C 122.988 263.188, 124 260.672, 124 259.411 C 124 256.448, 124.221 256.348, 132.500 255.566 L 139.500 254.906 142.215 259.890 C 149.983 274.154, 170.977 274.539, 179.495 260.574 C 182.050 256.385, 182.494 254.664, 182.457 249.074 C 182.417 242.858, 181.504 240.059, 177.833 234.894 C 176.896 233.575, 177.803 231.827, 182.891 225.144 C 188.223 218.139, 189.509 217, 192.090 217 C 193.958 217, 196.035 216.056, 197.591 214.500 C 199.839 212.252, 200.894 212, 208.045 212 C 214.541 212, 216 212.282, 216 213.540 C 216 215.941, 219.907 223.010, 222.629 225.532 L 225.088 227.811 215.306 247.405 L 205.524 267 201.148 267 C 191.897 267, 184.918 273.830, 184.847 282.954 C 184.778 291.914, 190.122 297.921, 198.914 298.766 C 207.492 299.590, 213.767 295.294, 215.978 287.083 C 217.001 283.282, 217.048 283.253, 223.254 282.552 C 226.689 282.164, 230.683 281.611, 232.129 281.323 C 234.454 280.859, 235.030 281.342, 237.103 285.492 C 241.595 294.485, 249.385 299.241, 259.635 299.247 C 275.625 299.255, 287.121 284.029, 282.812 268.549 L 281.247 262.926 285.747 259.830 C 289.466 257.271, 291.288 256.713, 296.244 256.615 C 302.087 256.500, 302.435 256.646, 309.870 262.340 C 314.067 265.554, 317.645 268.325, 317.822 268.497 C 317.999 268.669, 317.436 270.894, 316.572 273.440 C 314.489 279.575, 314.619 285.563, 316.946 290.689 L 318.848 294.879 315.486 297.443 L 312.125 300.006 308.567 297.907 C 304.349 295.418, 296.537 295.149, 292.312 297.347 C 277.936 304.825, 280.768 326.490, 296.550 329.769 C 300.316 330.551, 300.520 330.800, 301.679 336.020 C 302.793 341.037, 302.731 341.602, 300.882 343.325 C 297.865 346.135, 296.981 349.346, 298.104 353.413 C 299.388 358.066, 303.706 360.463, 309.215 359.582 C 312.817 359.006, 313.562 359.326, 318.565 363.599 C 322.320 366.808, 324 368.978, 324 370.621 C 324 373.907, 327.394 377, 331 377 C 334.224 377, 338 373.998, 338 371.434 C 338 369.333, 336.026 365.688, 334.354 364.700 C 333.394 364.134, 333 361.565, 333 355.883 C 333 348.016, 333.066 347.804, 336.500 344.565 C 338.809 342.387, 340 340.352, 340 338.582 C 340 335.366, 337.613 330.449, 335.694 329.713 C 334.528 329.266, 334.516 327.886, 335.617 320.842 C 338.086 305.039, 337.718 306.001, 341.295 305.990 C 348.884 305.967, 358.351 299.048, 361.805 291 C 363.997 285.894, 363.700 276.293, 361.200 271.392 C 358.947 266.976, 352.437 260.591, 349.111 259.535 C 347.950 259.167, 347.003 258.558, 347.007 258.183 C 347.011 257.807, 349.036 247.894, 351.507 236.154 C 353.978 224.414, 356 214.626, 356 214.404 C 356 214.182, 356.597 214, 357.326 214 C 359.899 214, 363 209.496, 363 205.758 C 363 198.929, 354.456 195.453, 349.602 200.307 C 348.334 201.576, 347.098 203.207, 346.856 203.932 C 346.588 204.735, 340.396 206.544, 331.009 208.562 L 315.600 211.874 314.050 209.687 C 313.198 208.484, 312.500 207.275, 312.500 207 C 312.500 205.039, 323.430 187, 324.618 187 C 327.875 187, 332.074 183.879, 332.643 181.036 C 333.167 178.414, 334.198 177.792, 344.203 174.057 L 355.187 169.957 358.566 172.924 C 371.497 184.278, 390.197 171.375, 383.621 155.636 C 382.383 152.672, 380.277 150.511, 375.695 147.500 C 374.368 146.629, 374.331 145.453, 375.401 138.358 C 376.512 130.988, 376.978 129.887, 380.314 126.740 C 382.341 124.828, 384 122.366, 384 121.269 C 384 119.706, 385.895 118.483, 392.750 115.622 C 397.563 113.614, 401.954 111.977, 402.509 111.985 C 403.065 111.993, 404.102 112.933, 404.814 114.073 C 407.573 118.492, 417.658 121.221, 423.300 119.076 C 425.562 118.216, 426.152 118.774, 431.831 127.150 L 437.931 136.147 435.316 140.099 C 432.553 144.274, 431.763 150.643, 433.280 156.523 C 434.032 159.442, 433.727 159.800, 424.438 166.892 C 415.686 173.574, 414.595 174.136, 412.361 173.119 C 408.179 171.213, 403.422 171.774, 400.106 174.564 C 394.887 178.956, 394.211 186.261, 398.578 191.086 C 399.845 192.486, 399.372 194.097, 394.613 204.588 C 389.668 215.490, 388.968 216.522, 386.355 216.764 C 379.284 217.418, 376.719 218.308, 373.330 221.284 C 361.141 231.985, 367.552 250.712, 383.616 251.330 L 388.019 251.500 390.586 258.042 L 393.153 264.584 388.692 269.045 C 381.477 276.260, 380.113 284.920, 384.750 294.064 C 388.358 301.179, 393.657 304.903, 401.296 305.691 C 410.956 306.688, 420.168 301.490, 423.788 293 C 426.879 285.750, 424.715 273.328, 419.624 269.103 C 418.303 268.007, 419.340 266.036, 427.479 254.170 C 435.447 242.554, 437.205 240.545, 439.178 240.801 C 455.557 242.921, 461.853 241.758, 468.396 235.404 C 481.740 222.444, 478.809 200.252, 462.689 192.202 C 444.993 183.364, 424.043 195.767, 424.010 215.101 C 423.998 222.068, 425.365 226.211, 429.616 232.090 L 432.936 236.680 423.399 250.839 C 414.430 264.156, 413.734 264.928, 411.686 263.832 C 410.488 263.191, 406.965 262.667, 403.856 262.667 L 398.204 262.667 395.608 256.124 L 393.013 249.582 395.886 246.541 C 400.075 242.109, 401 239.775, 401 233.642 C 401 228.891, 400.521 227.526, 397.437 223.486 L 393.874 218.818 399.187 206.915 C 403.093 198.165, 404.972 195.011, 406.282 195.006 C 409.604 194.995, 414.836 192.180, 416.633 189.437 C 417.750 187.733, 418.353 185.124, 418.239 182.496 C 418.056 178.288, 418.062 178.281, 427.841 170.769 L 437.627 163.253 440.138 165.082 C 441.519 166.088, 444.529 167.333, 446.827 167.850 C 458.338 170.436, 469 161.853, 469 150 C 469 137.725, 457.783 129.276, 445.500 132.298 C 442.611 133.009, 442.285 132.721, 436.678 124.483 L 430.857 115.928 433.428 110.768 C 436.458 104.689, 436.650 100.028, 434.104 94.421 C 429.445 84.164, 417.038 81.064, 407.514 87.777 L 403.370 90.698 392.553 84.552 L 381.736 78.406 381.618 70.288 C 381.512 62.992, 381.195 61.731, 378.494 57.835 C 374.178 51.611, 366.248 47.674, 359.363 48.338 C 353.845 48.869, 349.816 50.588, 346.292 53.915 C 345.077 55.062, 343.674 56, 343.174 56 C 342.674 56, 339.035 54.130, 335.087 51.844 C 328.406 47.977, 327.951 47.498, 328.516 44.928 C 330.052 37.935, 323.895 28.668, 316.622 27.028 C 305.396 24.496, 294.679 35.311, 297.868 45.955 C 298.520 48.130, 300.123 51.181, 301.430 52.735 L 303.807 55.560 299.154 65.711 C 292.621 79.961, 292.162 80.005, 280.334 67.529 L 271.168 57.860 273.834 52.721 C 280.755 39.381, 273.546 22.912, 258.878 18.556 C 252.737 16.733, 252.023 16.725, 245.713 18.422 M 321.062 55.234 C 319.007 56.550, 315.791 57.507, 313.066 57.616 L 308.508 57.797 303.822 68.081 C 299.427 77.727, 299.225 78.534, 300.558 81.111 C 301.388 82.717, 301.733 85.084, 301.388 86.809 C 300.869 89.403, 301.662 90.738, 307.958 97.883 C 313.951 104.684, 315.412 105.850, 316.929 105.038 C 320.917 102.903, 327.425 102.112, 332.333 103.165 C 336.028 103.957, 338.404 105.355, 342.015 108.857 C 351.286 117.852, 351.385 129.873, 342.267 139.231 C 335.887 145.778, 325.838 147.553, 318.026 143.513 L 315.261 142.084 305.881 153.074 C 300.721 159.119, 296.593 164.612, 296.707 165.282 C 296.821 165.952, 297.452 168.318, 298.108 170.540 C 300.396 178.287, 296.569 186.611, 289.329 189.636 C 284.814 191.522, 281.327 191.344, 276.566 188.985 C 271.239 186.346, 268.899 182.944, 268.129 176.721 L 267.500 171.639 258.418 167.960 C 250.493 164.749, 249.100 164.454, 247.477 165.640 C 244.549 167.782, 240.198 167.289, 237.409 164.500 C 235.236 162.327, 234.026 162, 228.162 162 L 221.415 162 220.277 166.254 C 215.571 183.851, 194.020 190.691, 180.574 178.856 C 174.620 173.615, 172 167.944, 172 160.298 C 172 148.265, 180.158 138.562, 192.414 136.018 C 198.496 134.755, 198.125 135.426, 200.134 122.067 C 201.140 115.375, 201.147 113.549, 200.164 113.221 C 197.513 112.338, 192.662 107.436, 191.364 104.329 C 189.713 100.377, 189.584 92.679, 191.120 89.684 C 191.736 88.483, 193.539 86.125, 195.127 84.445 L 198.014 81.390 194.187 71.945 L 190.361 62.500 185.360 61.881 C 179.892 61.204, 176.696 59.839, 173.265 56.715 L 171.030 54.680 159.765 60.486 C 146.194 67.482, 146.075 67.569, 146.717 70.025 C 148.211 75.737, 143.246 84.413, 137.005 86.998 L 134 88.243 134 97.621 C 134 104.455, 134.339 107.002, 135.250 107.006 C 138.944 107.022, 144.619 109.563, 148.227 112.817 C 157.713 121.369, 158.582 134.287, 150.320 143.940 L 146.960 147.864 149.179 152.432 C 150.727 155.617, 152.019 157.010, 153.449 157.032 C 158.008 157.103, 161.728 162.955, 160.038 167.399 C 158.846 170.535, 155.240 173, 151.843 173 C 149.534 173, 146.887 175.759, 134.006 191.591 C 120.457 208.244, 118.946 210.478, 119.507 213.032 C 120.206 216.216, 118.903 219.252, 115.487 222.395 C 113.580 224.149, 113.105 225.859, 112.638 232.651 C 112.093 240.583, 112.141 240.819, 114.427 241.392 C 116.716 241.967, 122.347 247.541, 123.188 250.065 C 123.512 251.036, 125.285 251.115, 130.950 250.412 L 138.292 249.500 139.440 244.951 C 142.839 231.490, 154.726 224.469, 167.462 228.400 C 170.191 229.243, 172.666 229.592, 172.962 229.178 C 173.258 228.763, 176.029 225.066, 179.119 220.962 C 184.096 214.353, 184.685 213.078, 184.267 209.807 C 183.884 206.810, 184.276 205.633, 186.352 203.557 C 189.948 199.961, 194.385 200.130, 198 204 C 200.623 206.808, 201.273 207, 208.151 206.996 L 215.500 206.993 218 201.746 C 228.337 180.052, 261.263 191.375, 256.016 214.819 C 253.724 225.060, 243.753 232.060, 233.467 230.650 L 229.413 230.095 219.553 249.894 C 209.849 269.380, 209.723 269.723, 211.596 271.618 C 212.643 272.677, 214.195 274.606, 215.044 275.904 C 216.581 278.254, 216.628 278.259, 225.267 277.033 L 233.947 275.801 234.540 272.150 C 235.955 263.449, 240.783 256.711, 248.447 252.740 C 256.497 248.569, 268.844 250.422, 275.606 256.817 L 277.711 258.809 282.856 255.223 C 285.934 253.078, 288 250.887, 288 249.769 C 288 247.092, 290.645 242.350, 292.545 241.621 C 298.349 239.394, 303.904 242.475, 304.877 248.461 C 305.418 251.786, 306.543 253.107, 313.308 258.358 C 319.906 263.480, 321.376 264.232, 322.807 263.219 C 327.250 260.074, 332.164 258.047, 336.855 257.425 C 339.685 257.049, 342.003 256.463, 342.007 256.121 C 342.011 255.780, 344.010 246.050, 346.449 234.500 C 352.116 207.663, 352.872 208.993, 334.207 212.971 C 314.986 217.068, 316 216.708, 316 219.448 C 316 220.810, 314.536 223.410, 312.632 225.429 C 309.618 228.625, 308.723 229, 304.117 229 C 299.700 229, 298.472 228.540, 295.451 225.750 C 291.193 221.819, 290.121 217.039, 292.318 211.780 C 294.226 207.214, 298.055 204.670, 303.365 204.442 L 307.500 204.263 312.725 194.882 C 317.646 186.045, 317.915 185.200, 317.347 180.333 C 316.805 175.692, 317.007 174.902, 319.327 172.583 C 322.252 169.657, 326.429 169.211, 329.667 171.479 C 331.595 172.829, 332.737 172.602, 342.731 168.879 C 353.494 164.869, 353.686 164.743, 353.805 161.560 C 354.066 154.621, 358.483 148.834, 365.012 146.878 L 368.749 145.759 369.991 136.668 C 370.914 129.913, 370.941 127.480, 370.096 127.199 C 369.470 126.990, 368.256 125.461, 367.398 123.802 C 365.684 120.489, 366.185 116.577, 368.676 113.813 C 369.884 112.472, 369.984 111.445, 369.160 108.813 C 368.589 106.991, 367.205 102.336, 366.084 98.468 L 364.045 91.437 359.526 91.240 C 353.903 90.996, 348.242 88.179, 344.261 83.645 C 340.064 78.865, 338.618 73.926, 339.354 66.884 L 339.962 61.067 333.173 57.033 C 329.439 54.815, 325.960 53.008, 325.442 53.017 C 324.924 53.026, 322.953 54.024, 321.062 55.234 M 262.500 63.805 C 258.105 66.138, 248.261 66.554, 243.592 64.603 C 241.482 63.721, 239.414 63, 238.996 63 C 238.579 63, 234.162 67.972, 229.181 74.050 L 220.126 85.099 222.104 88.452 C 223.193 90.297, 224.206 93.930, 224.357 96.527 L 224.631 101.249 236.542 106.226 C 243.847 109.279, 248.902 110.874, 249.613 110.352 C 250.251 109.883, 252.476 108.150, 254.557 106.500 C 257.823 103.911, 259.173 103.500, 264.420 103.500 C 267.764 103.500, 271.400 103.822, 272.500 104.215 C 274.153 104.806, 275.461 103.659, 280.041 97.603 C 285.437 90.466, 285.567 90.141, 285.041 85.145 C 284.539 80.386, 283.899 79.364, 276.182 71.007 C 271.608 66.053, 267.333 62.048, 266.682 62.106 C 266.032 62.164, 264.150 62.929, 262.500 63.805 M 373.385 86.807 L 369.269 90.533 372.222 100.612 C 375.060 110.302, 375.320 110.756, 378.945 112.356 C 382.687 114.007, 382.781 113.991, 391.358 110.361 C 399.930 106.732, 400 106.673, 400.014 103.101 C 400.021 101.121, 400.260 98.600, 400.543 97.500 C 400.978 95.815, 399.274 94.515, 389.724 89.250 C 383.489 85.813, 378.188 83.018, 377.944 83.041 C 377.700 83.064, 375.648 84.758, 373.385 86.807 M 158.589 89.077 C 155.611 92.616, 155.434 94.005, 157.463 97.928 C 159.037 100.973, 160.813 102, 164.500 102 C 168.187 102, 169.963 100.973, 171.537 97.928 C 173.566 94.005, 173.389 92.616, 170.411 89.077 C 168.477 86.778, 166.982 86, 164.500 86 C 162.018 86, 160.523 86.778, 158.589 89.077 M 284.335 100.757 L 278.698 108.118 280.849 111.945 C 285.378 120.003, 282.874 130.807, 275.270 136.017 C 272.305 138.049, 270.438 138.500, 264.995 138.500 C 259.206 138.500, 257.855 138.127, 254.563 135.616 C 250.077 132.194, 247.052 126.085, 247.022 120.384 L 247 116.268 234.750 111.230 L 222.500 106.192 219.500 108.976 C 215.660 112.540, 212.778 114, 209.585 114 C 206.797 114, 206.763 114.080, 204.990 125 C 204.409 128.575, 203.709 132.642, 203.434 134.037 C 203.007 136.209, 203.436 136.756, 206.416 137.834 C 210.961 139.477, 218.293 147.698, 219.851 152.898 L 221.080 157 227.463 157 C 233.222 157, 234.139 156.707, 236.846 154 C 240.654 150.192, 245.077 149.986, 248.545 153.455 C 249.895 154.805, 251.001 156.717, 251.002 157.705 C 251.004 159.038, 253.383 160.440, 260.252 163.154 L 269.500 166.808 272.629 163.825 C 276.398 160.232, 282.356 158.668, 287.097 160.028 C 288.961 160.563, 290.789 161, 291.157 161 C 291.526 161, 296.148 156.086, 301.429 150.081 L 311.030 139.162 308.515 134.432 C 305.142 128.088, 305.125 121.067, 308.468 114.463 C 310.521 110.409, 310.720 109.327, 309.648 108.044 C 298.626 94.842, 296.820 93.203, 293.399 93.300 C 290.361 93.386, 289.335 94.230, 284.335 100.757 M 98.759 138.302 L 87.019 140.383 86.465 143.941 C 85.358 151.054, 83.558 155.220, 79.696 159.607 C 75.095 164.835, 69.497 167.954, 63.080 168.865 C 58.526 169.511, 58.498 169.539, 58.193 173.757 C 57.988 176.585, 58.290 178, 59.098 178 C 61.170 178, 66.923 182.951, 68.584 186.163 C 70.647 190.151, 70.689 198.767, 68.666 202.680 C 67.154 205.603, 63.352 209.281, 59.529 211.517 C 58.058 212.378, 57.926 213.224, 58.676 217.017 C 59.535 221.365, 59.691 221.517, 63.876 222.080 C 68.799 222.742, 67.030 224.771, 79.981 203.605 C 87.190 191.824, 87.244 191.683, 85.630 188.951 C 84.733 187.433, 84 184.303, 84 181.996 C 84 178.557, 84.614 177.186, 87.400 174.400 C 89.270 172.530, 91.858 170.939, 93.150 170.865 C 94.443 170.791, 96.815 170.679, 98.423 170.615 C 100.969 170.515, 102.480 168.925, 110.148 158.276 L 118.950 146.053 115.826 141.026 C 114.107 138.262, 112.206 136.050, 111.601 136.110 C 110.995 136.171, 105.217 137.157, 98.759 138.302 M 147.241 185.995 C 136.444 192.578, 137.775 209.075, 149.464 213.539 C 157.738 216.699, 165.606 213.405, 169.203 205.275 C 172.543 197.724, 169.474 189.365, 161.931 185.464 C 157.908 183.384, 151.121 183.629, 147.241 185.995 M 318.706 301.359 C 316.021 303.556, 315.953 303.830, 316.976 308.392 C 317.727 311.743, 317.727 314.299, 316.978 317.083 C 315.795 321.475, 310.955 327.562, 307.866 328.543 C 306.126 329.095, 305.942 329.742, 306.500 333.340 C 307.506 339.816, 307.959 340.852, 310.085 341.527 C 313.737 342.686, 316 346.126, 316 350.516 C 316 354.348, 316.427 355.002, 321.750 359.319 L 327.500 363.982 327.791 355.963 L 328.082 347.943 324.541 344.603 C 318.954 339.334, 320.011 332.114, 326.890 328.557 C 329.416 327.251, 329.771 326.350, 330.923 318.312 C 331.618 313.466, 332.398 308.569, 332.656 307.430 C 333.030 305.786, 332.290 304.984, 329.057 303.526 C 326.819 302.517, 324.486 301.086, 323.872 300.346 C 322.406 298.579, 322.006 298.657, 318.706 301.359" stroke="none" fill="#23bbb5" fill-rule="evenodd"/><path d="M 0 193.502 L 0 387.004 249.750 386.752 L 499.500 386.500 499.753 193.250 L 500.005 0 250.003 0 L 0 0 0 193.502 M 0.490 194 C 0.490 300.425, 0.607 343.963, 0.750 290.750 C 0.893 237.538, 0.893 150.463, 0.750 97.250 C 0.607 44.038, 0.490 87.575, 0.490 194 M 245.713 18.422 C 235.564 21.152, 228 31.208, 228 41.974 C 228 46.440, 228.691 49.058, 231.103 53.735 L 234.206 59.751 225.373 70.455 C 216.910 80.712, 216.415 81.128, 213.521 80.426 C 211.859 80.024, 208.925 79.651, 207 79.597 C 202.966 79.485, 202.528 78.898, 198.029 67.573 L 194.943 59.805 198.418 55.959 C 202.580 51.352, 204.249 45.930, 203.080 40.811 C 199.737 26.165, 182.742 21.008, 172.814 31.627 C 169.310 35.374, 168 39.015, 168 45.005 L 168 49.880 155.752 56.390 L 143.504 62.899 140.799 60.307 C 137.554 57.198, 129.699 56.054, 124.991 58.004 C 112.970 62.983, 112.556 80.765, 124.331 86.353 C 127.384 87.801, 127.779 88.478, 128.350 93.230 C 128.698 96.128, 128.987 100.607, 128.991 103.183 C 128.999 107.173, 128.668 107.966, 126.750 108.549 C 125.513 108.925, 123.024 110.338, 121.220 111.690 C 119.417 113.041, 117.599 114.001, 117.182 113.823 C 116.764 113.646, 112.314 110.637, 107.292 107.138 C 98.470 100.991, 98.180 100.667, 98.690 97.520 C 100.001 89.444, 91.643 81.879, 83.801 84.045 C 73.746 86.821, 70.917 98.208, 78.605 104.958 C 81.301 107.325, 83.011 108, 86.312 108 C 88.646 108, 91.534 107.314, 92.732 106.475 C 94.789 105.034, 95.388 105.288, 103.704 111.126 C 108.542 114.523, 112.868 117.624, 113.317 118.018 C 113.766 118.411, 113.581 121.407, 112.907 124.674 L 111.680 130.614 101.090 132.394 C 95.265 133.373, 89.365 134.395, 87.978 134.666 C 85.808 135.090, 85.206 134.595, 83.675 131.125 C 81.405 125.980, 73.370 118.727, 68.236 117.189 C 55.239 113.295, 41.559 119.042, 35.850 130.794 C 33.050 136.556, 32.852 147.371, 35.436 153.335 C 37.586 158.297, 45.059 165.534, 49.571 167.023 C 52.927 168.131, 53.090 168.395, 52.803 172.240 C 52.509 176.169, 52.358 176.325, 47.721 177.498 C 39.482 179.580, 34.714 185.813, 34.714 194.500 C 34.714 203.162, 40.018 209.943, 48.588 212.235 C 52.708 213.337, 52.972 213.627, 53.589 217.745 C 53.948 220.136, 54.074 222.184, 53.870 222.296 C 48.682 225.150, 47.016 226.431, 44.530 229.476 C 42.017 232.552, 41.507 234.145, 41.220 239.806 C 40.823 247.652, 42.576 251.722, 48.371 256.412 C 51.274 258.762, 53.261 259.464, 57.979 259.805 C 65.640 260.359, 68.167 259.670, 72.533 255.837 C 77.492 251.483, 79.200 247.681, 79.200 241 C 79.200 235.254, 77.492 230.483, 74.566 228.055 C 73.705 227.340, 73.019 226.248, 73.041 225.628 C 73.064 225.007, 77.269 217.755, 82.386 209.512 C 91.645 194.597, 91.707 194.525, 95.113 194.818 C 99.101 195.162, 104.775 191.814, 106.721 187.970 C 108.371 184.708, 108.318 180.133, 106.591 176.824 C 105.239 174.232, 105.480 173.754, 114.153 161.824 C 120.550 153.024, 123.596 149.610, 124.806 149.884 C 125.738 150.096, 130.060 150.373, 134.410 150.502 L 142.321 150.735 144.241 154.478 C 145.597 157.121, 145.932 158.997, 145.379 160.861 C 144.949 162.312, 144.576 165.113, 144.549 167.084 C 144.507 170.185, 142.507 173.120, 129.725 188.834 C 116.481 205.118, 114.637 207, 111.930 207 C 107.955 207, 104 210.929, 104 214.878 C 104 216.536, 105.044 219.095, 106.365 220.673 C 108.545 223.279, 108.681 224.087, 108.096 231 C 107.388 239.377, 106.726 241, 104.018 241 C 101.604 241, 96.336 245.450, 94.464 249.069 C 92.206 253.436, 92.584 261.095, 95.250 265.001 C 101.546 274.224, 115.454 274.224, 121.750 265.001 C 122.988 263.188, 124 260.672, 124 259.411 C 124 256.448, 124.221 256.348, 132.500 255.566 L 139.500 254.906 142.215 259.890 C 149.983 274.154, 170.977 274.539, 179.495 260.574 C 182.050 256.385, 182.494 254.664, 182.457 249.074 C 182.417 242.858, 181.504 240.059, 177.833 234.894 C 176.896 233.575, 177.803 231.827, 182.891 225.144 C 188.223 218.139, 189.509 217, 192.090 217 C 193.958 217, 196.035 216.056, 197.591 214.500 C 199.839 212.252, 200.894 212, 208.045 212 C 214.541 212, 216 212.282, 216 213.540 C 216 215.941, 219.907 223.010, 222.629 225.532 L 225.088 227.811 215.306 247.405 L 205.524 267 201.148 267 C 191.897 267, 184.918 273.830, 184.847 282.954 C 184.778 291.914, 190.122 297.921, 198.914 298.766 C 207.492 299.590, 213.767 295.294, 215.978 287.083 C 217.001 283.282, 217.048 283.253, 223.254 282.552 C 226.689 282.164, 230.683 281.611, 232.129 281.323 C 234.454 280.859, 235.030 281.342, 237.103 285.492 C 241.595 294.485, 249.385 299.241, 259.635 299.247 C 275.625 299.255, 287.121 284.029, 282.812 268.549 L 281.247 262.926 285.747 259.830 C 289.466 257.271, 291.288 256.713, 296.244 256.615 C 302.087 256.500, 302.435 256.646, 309.870 262.340 C 314.067 265.554, 317.645 268.325, 317.822 268.497 C 317.999 268.669, 317.436 270.894, 316.572 273.440 C 314.489 279.575, 314.619 285.563, 316.946 290.689 L 318.848 294.879 315.486 297.443 L 312.125 300.006 308.567 297.907 C 304.349 295.418, 296.537 295.149, 292.312 297.347 C 277.936 304.825, 280.768 326.490, 296.550 329.769 C 300.316 330.551, 300.520 330.800, 301.679 336.020 C 302.793 341.037, 302.731 341.602, 300.882 343.325 C 297.865 346.135, 296.981 349.346, 298.104 353.413 C 299.388 358.066, 303.706 360.463, 309.215 359.582 C 312.817 359.006, 313.562 359.326, 318.565 363.599 C 322.320 366.808, 324 368.978, 324 370.621 C 324 373.907, 327.394 377, 331 377 C 334.224 377, 338 373.998, 338 371.434 C 338 369.333, 336.026 365.688, 334.354 364.700 C 333.394 364.134, 333 361.565, 333 355.883 C 333 348.016, 333.066 347.804, 336.500 344.565 C 338.809 342.387, 340 340.352, 340 338.582 C 340 335.366, 337.613 330.449, 335.694 329.713 C 334.528 329.266, 334.516 327.886, 335.617 320.842 C 338.086 305.039, 337.718 306.001, 341.295 305.990 C 348.884 305.967, 358.351 299.048, 361.805 291 C 363.997 285.894, 363.700 276.293, 361.200 271.392 C 358.947 266.976, 352.437 260.591, 349.111 259.535 C 347.950 259.167, 347.003 258.558, 347.007 258.183 C 347.011 257.807, 349.036 247.894, 351.507 236.154 C 353.978 224.414, 356 214.626, 356 214.404 C 356 214.182, 356.597 214, 357.326 214 C 359.899 214, 363 209.496, 363 205.758 C 363 198.929, 354.456 195.453, 349.602 200.307 C 348.334 201.576, 347.098 203.207, 346.856 203.932 C 346.588 204.735, 340.396 206.544, 331.009 208.562 L 315.600 211.874 314.050 209.687 C 313.198 208.484, 312.500 207.275, 312.500 207 C 312.500 205.039, 323.430 187, 324.618 187 C 327.875 187, 332.074 183.879, 332.643 181.036 C 333.167 178.414, 334.198 177.792, 344.203 174.057 L 355.187 169.957 358.566 172.924 C 371.497 184.278, 390.197 171.375, 383.621 155.636 C 382.383 152.672, 380.277 150.511, 375.695 147.500 C 374.368 146.629, 374.331 145.453, 375.401 138.358 C 376.512 130.988, 376.978 129.887, 380.314 126.740 C 382.341 124.828, 384 122.366, 384 121.269 C 384 119.706, 385.895 118.483, 392.750 115.622 C 397.563 113.614, 401.954 111.977, 402.509 111.985 C 403.065 111.993, 404.102 112.933, 404.814 114.073 C 407.573 118.492, 417.658 121.221, 423.300 119.076 C 425.562 118.216, 426.152 118.774, 431.831 127.150 L 437.931 136.147 435.316 140.099 C 432.553 144.274, 431.763 150.643, 433.280 156.523 C 434.032 159.442, 433.727 159.800, 424.438 166.892 C 415.686 173.574, 414.595 174.136, 412.361 173.119 C 408.179 171.213, 403.422 171.774, 400.106 174.564 C 394.887 178.956, 394.211 186.261, 398.578 191.086 C 399.845 192.486, 399.372 194.097, 394.613 204.588 C 389.668 215.490, 388.968 216.522, 386.355 216.764 C 379.284 217.418, 376.719 218.308, 373.330 221.284 C 361.141 231.985, 367.552 250.712, 383.616 251.330 L 388.019 251.500 390.586 258.042 L 393.153 264.584 388.692 269.045 C 381.477 276.260, 380.113 284.920, 384.750 294.064 C 388.358 301.179, 393.657 304.903, 401.296 305.691 C 410.956 306.688, 420.168 301.490, 423.788 293 C 426.879 285.750, 424.715 273.328, 419.624 269.103 C 418.303 268.007, 419.340 266.036, 427.479 254.170 C 435.447 242.554, 437.205 240.545, 439.178 240.801 C 455.557 242.921, 461.853 241.758, 468.396 235.404 C 481.740 222.444, 478.809 200.252, 462.689 192.202 C 444.993 183.364, 424.043 195.767, 424.010 215.101 C 423.998 222.068, 425.365 226.211, 429.616 232.090 L 432.936 236.680 423.399 250.839 C 414.430 264.156, 413.734 264.928, 411.686 263.832 C 410.488 263.191, 406.965 262.667, 403.856 262.667 L 398.204 262.667 395.608 256.124 L 393.013 249.582 395.886 246.541 C 400.075 242.109, 401 239.775, 401 233.642 C 401 228.891, 400.521 227.526, 397.437 223.486 L 393.874 218.818 399.187 206.915 C 403.093 198.165, 404.972 195.011, 406.282 195.006 C 409.604 194.995, 414.836 192.180, 416.633 189.437 C 417.750 187.733, 418.353 185.124, 418.239 182.496 C 418.056 178.288, 418.062 178.281, 427.841 170.769 L 437.627 163.253 440.138 165.082 C 441.519 166.088, 444.529 167.333, 446.827 167.850 C 458.338 170.436, 469 161.853, 469 150 C 469 137.725, 457.783 129.276, 445.500 132.298 C 442.611 133.009, 442.285 132.721, 436.678 124.483 L 430.857 115.928 433.428 110.768 C 436.458 104.689, 436.650 100.028, 434.104 94.421 C 429.445 84.164, 417.038 81.064, 407.514 87.777 L 403.370 90.698 392.553 84.552 L 381.736 78.406 381.618 70.288 C 381.512 62.992, 381.195 61.731, 378.494 57.835 C 374.178 51.611, 366.248 47.674, 359.363 48.338 C 353.845 48.869, 349.816 50.588, 346.292 53.915 C 345.077 55.062, 343.674 56, 343.174 56 C 342.674 56, 339.035 54.130, 335.087 51.844 C 328.406 47.977, 327.951 47.498, 328.516 44.928 C 330.052 37.935, 323.895 28.668, 316.622 27.028 C 305.396 24.496, 294.679 35.311, 297.868 45.955 C 298.520 48.130, 300.123 51.181, 301.430 52.735 L 303.807 55.560 299.154 65.711 C 292.621 79.961, 292.162 80.005, 280.334 67.529 L 271.168 57.860 273.834 52.721 C 280.755 39.381, 273.546 22.912, 258.878 18.556 C 252.737 16.733, 252.023 16.725, 245.713 18.422 M 321.062 55.234 C 319.007 56.550, 315.791 57.507, 313.066 57.616 L 308.508 57.797 303.822 68.081 C 299.427 77.727, 299.225 78.534, 300.558 81.111 C 301.388 82.717, 301.733 85.084, 301.388 86.809 C 300.869 89.403, 301.662 90.738, 307.958 97.883 C 313.951 104.684, 315.412 105.850, 316.929 105.038 C 320.917 102.903, 327.425 102.112, 332.333 103.165 C 336.028 103.957, 338.404 105.355, 342.015 108.857 C 351.286 117.852, 351.385 129.873, 342.267 139.231 C 335.887 145.778, 325.838 147.553, 318.026 143.513 L 315.261 142.084 305.881 153.074 C 300.721 159.119, 296.593 164.612, 296.707 165.282 C 296.821 165.952, 297.452 168.318, 298.108 170.540 C 300.396 178.287, 296.569 186.611, 289.329 189.636 C 284.814 191.522, 281.327 191.344, 276.566 188.985 C 271.239 186.346, 268.899 182.944, 268.129 176.721 L 267.500 171.639 258.418 167.960 C 250.493 164.749, 249.100 164.454, 247.477 165.640 C 244.549 167.782, 240.198 167.289, 237.409 164.500 C 235.236 162.327, 234.026 162, 228.162 162 L 221.415 162 220.277 166.254 C 215.571 183.851, 194.020 190.691, 180.574 178.856 C 174.620 173.615, 172 167.944, 172 160.298 C 172 148.265, 180.158 138.562, 192.414 136.018 C 198.496 134.755, 198.125 135.426, 200.134 122.067 C 201.140 115.375, 201.147 113.549, 200.164 113.221 C 197.513 112.338, 192.662 107.436, 191.364 104.329 C 189.713 100.377, 189.584 92.679, 191.120 89.684 C 191.736 88.483, 193.539 86.125, 195.127 84.445 L 198.014 81.390 194.187 71.945 L 190.361 62.500 185.360 61.881 C 179.892 61.204, 176.696 59.839, 173.265 56.715 L 171.030 54.680 159.765 60.486 C 146.194 67.482, 146.075 67.569, 146.717 70.025 C 148.211 75.737, 143.246 84.413, 137.005 86.998 L 134 88.243 134 97.621 C 134 104.455, 134.339 107.002, 135.250 107.006 C 138.944 107.022, 144.619 109.563, 148.227 112.817 C 157.713 121.369, 158.582 134.287, 150.320 143.940 L 146.960 147.864 149.179 152.432 C 150.727 155.617, 152.019 157.010, 153.449 157.032 C 158.008 157.103, 161.728 162.955, 160.038 167.399 C 158.846 170.535, 155.240 173, 151.843 173 C 149.534 173, 146.887 175.759, 134.006 191.591 C 120.457 208.244, 118.946 210.478, 119.507 213.032 C 120.206 216.216, 118.903 219.252, 115.487 222.395 C 113.580 224.149, 113.105 225.859, 112.638 232.651 C 112.093 240.583, 112.141 240.819, 114.427 241.392 C 116.716 241.967, 122.347 247.541, 123.188 250.065 C 123.512 251.036, 125.285 251.115, 130.950 250.412 L 138.292 249.500 139.440 244.951 C 142.839 231.490, 154.726 224.469, 167.462 228.400 C 170.191 229.243, 172.666 229.592, 172.962 229.178 C 173.258 228.763, 176.029 225.066, 179.119 220.962 C 184.096 214.353, 184.685 213.078, 184.267 209.807 C 183.884 206.810, 184.276 205.633, 186.352 203.557 C 189.948 199.961, 194.385 200.130, 198 204 C 200.623 206.808, 201.273 207, 208.151 206.996 L 215.500 206.993 218 201.746 C 228.337 180.052, 261.263 191.375, 256.016 214.819 C 253.724 225.060, 243.753 232.060, 233.467 230.650 L 229.413 230.095 219.553 249.894 C 209.849 269.380, 209.723 269.723, 211.596 271.618 C 212.643 272.677, 214.195 274.606, 215.044 275.904 C 216.581 278.254, 216.628 278.259, 225.267 277.033 L 233.947 275.801 234.540 272.150 C 235.955 263.449, 240.783 256.711, 248.447 252.740 C 256.497 248.569, 268.844 250.422, 275.606 256.817 L 277.711 258.809 282.856 255.223 C 285.934 253.078, 288 250.887, 288 249.769 C 288 247.092, 290.645 242.350, 292.545 241.621 C 298.349 239.394, 303.904 242.475, 304.877 248.461 C 305.418 251.786, 306.543 253.107, 313.308 258.358 C 319.906 263.480, 321.376 264.232, 322.807 263.219 C 327.250 260.074, 332.164 258.047, 336.855 257.425 C 339.685 257.049, 342.003 256.463, 342.007 256.121 C 342.011 255.780, 344.010 246.050, 346.449 234.500 C 352.116 207.663, 352.872 208.993, 334.207 212.971 C 314.986 217.068, 316 216.708, 316 219.448 C 316 220.810, 314.536 223.410, 312.632 225.429 C 309.618 228.625, 308.723 229, 304.117 229 C 299.700 229, 298.472 228.540, 295.451 225.750 C 291.193 221.819, 290.121 217.039, 292.318 211.780 C 294.226 207.214, 298.055 204.670, 303.365 204.442 L 307.500 204.263 312.725 194.882 C 317.646 186.045, 317.915 185.200, 317.347 180.333 C 316.805 175.692, 317.007 174.902, 319.327 172.583 C 322.252 169.657, 326.429 169.211, 329.667 171.479 C 331.595 172.829, 332.737 172.602, 342.731 168.879 C 353.494 164.869, 353.686 164.743, 353.805 161.560 C 354.066 154.621, 358.483 148.834, 365.012 146.878 L 368.749 145.759 369.991 136.668 C 370.914 129.913, 370.941 127.480, 370.096 127.199 C 369.470 126.990, 368.256 125.461, 367.398 123.802 C 365.684 120.489, 366.185 116.577, 368.676 113.813 C 369.884 112.472, 369.984 111.445, 369.160 108.813 C 368.589 106.991, 367.205 102.336, 366.084 98.468 L 364.045 91.437 359.526 91.240 C 353.903 90.996, 348.242 88.179, 344.261 83.645 C 340.064 78.865, 338.618 73.926, 339.354 66.884 L 339.962 61.067 333.173 57.033 C 329.439 54.815, 325.960 53.008, 325.442 53.017 C 324.924 53.026, 322.953 54.024, 321.062 55.234 M 262.500 63.805 C 258.105 66.138, 248.261 66.554, 243.592 64.603 C 241.482 63.721, 239.414 63, 238.996 63 C 238.579 63, 234.162 67.972, 229.181 74.050 L 220.126 85.099 222.104 88.452 C 223.193 90.297, 224.206 93.930, 224.357 96.527 L 224.631 101.249 236.542 106.226 C 243.847 109.279, 248.902 110.874, 249.613 110.352 C 250.251 109.883, 252.476 108.150, 254.557 106.500 C 257.823 103.911, 259.173 103.500, 264.420 103.500 C 267.764 103.500, 271.400 103.822, 272.500 104.215 C 274.153 104.806, 275.461 103.659, 280.041 97.603 C 285.437 90.466, 285.567 90.141, 285.041 85.145 C 284.539 80.386, 283.899 79.364, 276.182 71.007 C 271.608 66.053, 267.333 62.048, 266.682 62.106 C 266.032 62.164, 264.150 62.929, 262.500 63.805 M 373.385 86.807 L 369.269 90.533 372.222 100.612 C 375.060 110.302, 375.320 110.756, 378.945 112.356 C 382.687 114.007, 382.781 113.991, 391.358 110.361 C 399.930 106.732, 400 106.673, 400.014 103.101 C 400.021 101.121, 400.260 98.600, 400.543 97.500 C 400.978 95.815, 399.274 94.515, 389.724 89.250 C 383.489 85.813, 378.188 83.018, 377.944 83.041 C 377.700 83.064, 375.648 84.758, 373.385 86.807 M 158.589 89.077 C 155.611 92.616, 155.434 94.005, 157.463 97.928 C 159.037 100.973, 160.813 102, 164.500 102 C 168.187 102, 169.963 100.973, 171.537 97.928 C 173.566 94.005, 173.389 92.616, 170.411 89.077 C 168.477 86.778, 166.982 86, 164.500 86 C 162.018 86, 160.523 86.778, 158.589 89.077 M 284.335 100.757 L 278.698 108.118 280.849 111.945 C 285.378 120.003, 282.874 130.807, 275.270 136.017 C 272.305 138.049, 270.438 138.500, 264.995 138.500 C 259.206 138.500, 257.855 138.127, 254.563 135.616 C 250.077 132.194, 247.052 126.085, 247.022 120.384 L 247 116.268 234.750 111.230 L 222.500 106.192 219.500 108.976 C 215.660 112.540, 212.778 114, 209.585 114 C 206.797 114, 206.763 114.080, 204.990 125 C 204.409 128.575, 203.709 132.642, 203.434 134.037 C 203.007 136.209, 203.436 136.756, 206.416 137.834 C 210.961 139.477, 218.293 147.698, 219.851 152.898 L 221.080 157 227.463 157 C 233.222 157, 234.139 156.707, 236.846 154 C 240.654 150.192, 245.077 149.986, 248.545 153.455 C 249.895 154.805, 251.001 156.717, 251.002 157.705 C 251.004 159.038, 253.383 160.440, 260.252 163.154 L 269.500 166.808 272.629 163.825 C 276.398 160.232, 282.356 158.668, 287.097 160.028 C 288.961 160.563, 290.789 161, 291.157 161 C 291.526 161, 296.148 156.086, 301.429 150.081 L 311.030 139.162 308.515 134.432 C 305.142 128.088, 305.125 121.067, 308.468 114.463 C 310.521 110.409, 310.720 109.327, 309.648 108.044 C 298.626 94.842, 296.820 93.203, 293.399 93.300 C 290.361 93.386, 289.335 94.230, 284.335 100.757 M 98.759 138.302 L 87.019 140.383 86.465 143.941 C 85.358 151.054, 83.558 155.220, 79.696 159.607 C 75.095 164.835, 69.497 167.954, 63.080 168.865 C 58.526 169.511, 58.498 169.539, 58.193 173.757 C 57.988 176.585, 58.290 178, 59.098 178 C 61.170 178, 66.923 182.951, 68.584 186.163 C 70.647 190.151, 70.689 198.767, 68.666 202.680 C 67.154 205.603, 63.352 209.281, 59.529 211.517 C 58.058 212.378, 57.926 213.224, 58.676 217.017 C 59.535 221.365, 59.691 221.517, 63.876 222.080 C 68.799 222.742, 67.030 224.771, 79.981 203.605 C 87.190 191.824, 87.244 191.683, 85.630 188.951 C 84.733 187.433, 84 184.303, 84 181.996 C 84 178.557, 84.614 177.186, 87.400 174.400 C 89.270 172.530, 91.858 170.939, 93.150 170.865 C 94.443 170.791, 96.815 170.679, 98.423 170.615 C 100.969 170.515, 102.480 168.925, 110.148 158.276 L 118.950 146.053 115.826 141.026 C 114.107 138.262, 112.206 136.050, 111.601 136.110 C 110.995 136.171, 105.217 137.157, 98.759 138.302 M 147.241 185.995 C 136.444 192.578, 137.775 209.075, 149.464 213.539 C 157.738 216.699, 165.606 213.405, 169.203 205.275 C 172.543 197.724, 169.474 189.365, 161.931 185.464 C 157.908 183.384, 151.121 183.629, 147.241 185.995 M 318.706 301.359 C 316.021 303.556, 315.953 303.830, 316.976 308.392 C 317.727 311.743, 317.727 314.299, 316.978 317.083 C 315.795 321.475, 310.955 327.562, 307.866 328.543 C 306.126 329.095, 305.942 329.742, 306.500 333.340 C 307.506 339.816, 307.959 340.852, 310.085 341.527 C 313.737 342.686, 316 346.126, 316 350.516 C 316 354.348, 316.427 355.002, 321.750 359.319 L 327.500 363.982 327.791 355.963 L 328.082 347.943 324.541 344.603 C 318.954 339.334, 320.011 332.114, 326.890 328.557 C 329.416 327.251, 329.771 326.350, 330.923 318.312 C 331.618 313.466, 332.398 308.569, 332.656 307.430 C 333.030 305.786, 332.290 304.984, 329.057 303.526 C 326.819 302.517, 324.486 301.086, 323.872 300.346 C 322.406 298.579, 322.006 298.657, 318.706 301.359" stroke="none" fill="#04242c" fill-rule="evenodd"/></svg>