<?xml version="1.0" standalone="no"?>
<!DOCTYPE svg PUBLIC "-//W3C//DTD SVG 20010904//EN"
 "http://www.w3.org/TR/2001/REC-SVG-20010904/DTD/svg10.dtd">
<svg version="1.0" xmlns="http://www.w3.org/2000/svg"
 width="499.000000pt" height="387.000000pt" viewBox="0 0 499.000000 387.000000"
 preserveAspectRatio="xMidYMid meet">

<g transform="translate(0.000000,387.000000) scale(0.100000,-0.100000)"
fill="#000000" stroke="none">
<path d="M0 1935 l0 -1935 2495 0 2495 0 0 1935 0 1935 -2495 0 -2495 0 0
-1935z m2601 1743 c22 -6 57 -26 78 -45 84 -71 106 -183 56 -290 l-26 -57 93
-93 c123 -124 125 -123 191 18 l49 106 -25 27 c-89 96 -19 256 113 256 89 0
150 -64 150 -157 l0 -52 77 -45 77 -44 39 33 c105 90 261 56 322 -70 24 -49
27 -64 22 -118 l-6 -62 115 -63 114 -64 30 25 c106 90 260 33 285 -105 8 -41
-8 -100 -36 -137 -18 -23 -18 -23 42 -110 l60 -86 79 0 c64 0 84 -4 107 -21
113 -84 107 -242 -12 -312 -53 -30 -140 -27 -186 7 l-31 23 -96 -75 -97 -74
-3 -51 c-4 -67 -42 -112 -96 -112 -36 0 -37 -1 -80 -94 -69 -147 -74 -166 -53
-177 27 -15 57 -84 57 -130 0 -50 -24 -102 -58 -129 l-25 -20 27 -69 27 -69
67 -4 c37 -3 73 -7 81 -9 14 -4 200 253 201 277 0 6 -9 19 -21 30 -54 49 -83
167 -60 251 35 127 177 211 310 182 195 -42 274 -277 144 -428 -69 -81 -197
-115 -290 -76 -20 9 -40 12 -43 8 -4 -5 -49 -70 -100 -146 l-93 -138 26 -27
c34 -36 47 -73 47 -135 0 -66 -27 -125 -74 -164 -86 -71 -196 -69 -277 4 -55
50 -72 87 -73 158 -1 49 4 69 27 108 15 26 39 54 52 63 31 20 31 26 1 100
l-24 59 -56 6 c-71 8 -118 42 -141 104 -44 114 34 227 157 229 l48 1 55 123
56 123 -21 28 c-24 35 -26 97 -4 129 32 47 97 64 143 38 24 -13 30 -10 122 60
l97 73 -5 78 c-5 72 -3 81 21 116 14 21 26 40 26 43 0 3 -27 45 -60 93 l-59
89 -41 -10 c-55 -14 -119 4 -160 47 l-32 33 -91 -38 c-76 -32 -93 -43 -101
-67 -11 -36 -25 -53 -51 -63 -18 -7 -23 -22 -34 -100 -7 -50 -11 -92 -9 -93
74 -39 102 -78 102 -147 0 -89 -63 -150 -156 -150 -45 0 -104 28 -114 55 -9
21 -19 19 -134 -24 -81 -30 -106 -44 -112 -62 -14 -37 -39 -59 -67 -59 -23 0
-34 -13 -84 -105 -56 -103 -57 -105 -41 -131 10 -14 24 -24 33 -21 9 2 80 17
159 33 112 23 143 33 148 47 9 30 46 57 76 57 39 0 78 -40 78 -80 0 -30 -30
-72 -59 -81 -11 -4 -101 -392 -101 -435 0 -7 16 -21 35 -30 110 -52 158 -205
100 -321 -37 -74 -97 -115 -189 -132 l-40 -6 -17 -110 -18 -110 24 -25 c13
-14 27 -37 30 -51 8 -32 -16 -83 -45 -99 -18 -9 -20 -21 -20 -96 0 -75 3 -88
21 -103 43 -35 15 -111 -41 -111 -32 0 -60 28 -63 64 -1 18 -20 40 -62 75 -51
42 -62 48 -84 40 -88 -34 -158 75 -96 149 23 28 24 33 15 82 -6 29 -10 54 -10
55 0 1 -18 5 -40 9 -24 4 -54 19 -76 38 -67 59 -81 132 -41 209 44 82 147 113
230 69 39 -21 47 -20 83 12 l21 18 -19 57 c-21 62 -18 124 8 175 13 26 12 28
-29 61 -110 88 -116 91 -181 92 -58 1 -91 -12 -154 -61 -2 -1 2 -19 8 -40 18
-54 15 -136 -8 -186 -21 -48 -78 -103 -128 -124 -55 -23 -142 -18 -202 12 -52
26 -107 87 -119 132 -6 25 -28 27 -132 8 -62 -10 -65 -13 -74 -45 -13 -51 -34
-78 -81 -101 -53 -25 -89 -25 -141 0 -79 38 -111 149 -62 220 37 55 71 74 131
74 l54 0 96 199 96 200 -34 38 c-19 21 -40 56 -46 78 l-10 39 -78 4 c-62 3
-80 1 -92 -13 -24 -25 -59 -41 -78 -35 -12 4 -35 -18 -83 -82 l-65 -87 23 -34
c61 -90 52 -195 -26 -272 -86 -86 -197 -92 -288 -14 -22 19 -48 50 -57 70 -15
31 -21 35 -54 34 -20 0 -54 -3 -75 -7 -34 -6 -41 -12 -52 -46 -38 -109 -162
-149 -245 -79 -58 48 -75 117 -46 186 17 41 45 66 93 82 l38 13 8 87 c8 85 7
87 -18 110 -51 49 -15 135 57 135 31 1 44 14 183 187 142 177 150 188 147 225
-2 21 2 45 8 53 9 11 7 23 -12 57 l-23 42 -70 1 c-38 1 -82 4 -96 9 -25 7 -32
1 -117 -117 l-90 -124 15 -45 c20 -54 12 -90 -27 -129 -23 -24 -37 -29 -77
-29 l-48 -1 -96 -157 c-93 -152 -96 -158 -79 -177 69 -79 65 -212 -7 -277 -75
-68 -221 -59 -281 16 -73 93 -44 244 57 295 37 19 38 21 31 59 -9 53 -17 62
-49 62 -33 0 -86 33 -115 73 -31 43 -34 140 -4 192 25 42 88 85 126 85 24 0
27 5 36 56 5 30 2 33 -38 48 -53 20 -112 77 -137 131 -29 62 -26 168 7 233 80
161 303 190 425 55 19 -21 41 -53 48 -71 7 -17 18 -32 24 -32 6 0 66 10 133
21 l122 22 15 61 c8 33 14 61 13 62 0 0 -44 31 -97 67 -95 66 -97 67 -125 52
-93 -48 -204 38 -175 136 33 111 173 121 227 17 10 -20 14 -42 10 -63 -6 -32
-5 -35 93 -103 82 -58 102 -68 111 -57 6 8 32 24 56 35 l44 22 0 98 0 97 -46
24 c-76 39 -104 121 -70 203 36 85 161 113 234 51 l29 -24 124 64 124 65 0 63
c0 55 4 69 29 101 32 42 95 76 141 76 17 0 48 -9 70 -19 70 -32 105 -86 105
-161 0 -51 -12 -80 -50 -124 l-32 -36 39 -98 39 -97 47 -2 c25 -1 55 -7 66
-13 18 -9 31 2 116 105 l96 115 -24 33 c-48 64 -59 140 -32 216 44 126 174
189 306 149z"/>
<path d="M3226 3332 c-20 -24 -88 -44 -118 -37 -21 5 -27 -5 -71 -102 -40 -89
-47 -111 -37 -126 6 -11 10 -36 9 -57 -3 -35 3 -46 61 -112 35 -40 67 -77 71
-82 4 -5 25 -2 49 8 164 65 331 -74 290 -243 -30 -127 -172 -198 -294 -147
l-36 15 -96 -111 c-63 -73 -94 -116 -90 -127 30 -90 30 -99 10 -148 -26 -63
-70 -93 -138 -93 -89 0 -156 62 -156 145 l0 40 -93 36 c-84 34 -94 36 -119 23
-39 -20 -66 -17 -94 11 -22 22 -34 25 -94 25 l-69 0 -11 -42 c-56 -213 -343
-249 -450 -58 -32 58 -35 165 -6 223 38 78 103 124 186 134 46 5 50 8 55 37
25 141 32 191 27 194 -64 24 -112 94 -112 161 0 52 12 81 50 124 l31 35 -39
98 -39 97 -52 2 c-41 2 -62 9 -99 35 l-47 33 -123 -64 c-122 -63 -122 -64
-116 -95 6 -33 -15 -95 -44 -128 -9 -10 -32 -25 -49 -33 l-33 -13 0 -94 0 -94
33 -7 c119 -26 201 -136 183 -247 -8 -51 -48 -123 -76 -138 -20 -10 -20 -12 5
-60 17 -33 32 -50 44 -50 34 0 71 -39 71 -75 0 -46 -28 -77 -73 -80 -34 -2
-45 -13 -184 -185 -141 -174 -148 -184 -149 -228 -1 -38 -6 -50 -31 -71 -28
-24 -31 -32 -38 -112 l-7 -86 32 -13 c32 -13 80 -67 80 -90 0 -8 8 -10 22 -7
13 3 49 9 81 12 43 6 57 11 57 24 0 68 54 147 123 182 31 16 53 20 106 16 36
-2 75 -7 86 -11 17 -6 31 7 83 75 57 75 61 84 56 120 -5 32 -2 42 19 63 15 14
35 26 46 26 31 0 70 -21 76 -42 6 -16 17 -18 90 -18 l83 0 11 30 c18 54 53 92
105 116 143 67 286 -25 286 -183 -1 -125 -107 -216 -229 -197 l-41 7 -96 -199
c-75 -157 -93 -202 -85 -214 7 -8 19 -28 29 -43 17 -28 19 -29 83 -23 114 10
129 15 129 44 0 45 23 101 57 141 47 55 105 81 181 81 70 0 112 -14 159 -54
l32 -27 55 38 c47 32 55 43 56 70 0 64 85 98 130 53 19 -19 21 -27 24 -73 1
-9 39 -46 85 -82 l85 -65 30 23 c47 34 82 47 131 47 25 0 45 2 45 5 0 2 20
102 45 222 59 281 69 266 -144 221 -110 -23 -155 -36 -158 -47 -25 -81 -60
-111 -130 -111 -30 0 -50 7 -72 26 -48 40 -56 92 -26 167 10 25 58 47 102 47
38 0 38 0 95 104 52 94 56 106 46 133 -17 44 -3 81 37 100 32 15 37 15 72 0
38 -17 39 -17 143 22 l105 39 7 47 c3 25 14 57 23 71 19 29 72 64 98 64 23 0
33 30 42 120 6 69 5 77 -14 94 -25 23 -28 76 -5 115 15 25 14 33 -14 126 l-30
100 -53 6 c-68 7 -109 28 -147 75 -42 50 -58 114 -45 175 l9 48 -78 46 c-42
25 -79 45 -81 45 -2 0 -11 -8 -21 -18z m-1532 -343 c20 -16 26 -29 26 -59 0
-70 -72 -103 -126 -57 -20 17 -27 33 -27 57 0 24 7 40 27 57 34 28 65 29 100
2z m-74 -977 c104 -52 108 -216 7 -268 -43 -23 -123 -21 -156 3 -51 38 -73 83
-69 139 9 114 118 177 218 126z"/>
<path d="M2632 3238 c-47 -29 -135 -34 -197 -11 l-50 18 -93 -112 c-93 -112
-93 -112 -76 -138 9 -14 19 -51 23 -83 l6 -57 124 -51 124 -52 33 33 c52 53
116 65 199 40 16 -5 31 8 75 66 50 66 55 77 55 123 0 51 0 51 -95 148 l-95 96
-33 -20z"/>
<path d="M3744 3011 c-17 -16 -37 -30 -44 -33 -9 -3 -7 -22 10 -78 41 -142 39
-139 78 -156 36 -15 40 -14 127 21 l90 37 2 58 1 59 -109 60 c-61 34 -113 61
-117 61 -4 0 -21 -13 -38 -29z"/>
<path d="M2842 2863 l-60 -77 21 -28 c29 -39 34 -131 10 -177 -46 -88 -150
-124 -238 -81 -61 30 -97 83 -101 151 -1 28 -6 54 -11 58 -4 4 -60 29 -124 55
l-115 47 -37 -35 c-24 -22 -53 -38 -79 -43 l-43 -9 -17 -99 c-9 -55 -17 -105
-17 -111 -1 -6 17 -19 40 -29 52 -24 107 -88 122 -142 l11 -43 69 0 c64 0 71
2 97 30 44 47 110 34 132 -25 10 -29 22 -37 102 -69 l90 -36 26 24 c14 13 35
29 47 35 27 14 112 14 133 1 11 -7 21 -2 40 19 14 16 58 68 98 115 l74 85 -27
56 c-24 47 -27 64 -22 111 3 30 15 71 26 90 12 20 18 41 14 47 -3 7 -36 45
-71 85 -55 62 -69 72 -97 72 -30 0 -40 -9 -93 -77z"/>
<path d="M974 2487 l-111 -20 -6 -52 c-7 -68 -36 -124 -89 -169 -41 -35 -118
-66 -164 -66 -18 0 -23 -7 -26 -40 -3 -39 -2 -42 39 -66 114 -67 109 -249 -9
-310 -29 -15 -30 -17 -23 -62 4 -26 8 -47 8 -48 1 -1 22 -4 47 -7 41 -5 47 -4
61 21 9 15 51 84 94 155 l78 128 -16 35 c-21 43 -21 76 -2 114 22 43 53 60
110 60 l50 0 80 112 c105 147 102 140 71 181 -14 18 -26 39 -26 45 0 16 -32
13 -166 -11z"/>
<path d="M3183 854 c-27 -21 -31 -29 -23 -44 16 -30 12 -112 -8 -150 -11 -19
-36 -46 -56 -60 -38 -24 -38 -25 -31 -75 7 -52 19 -75 40 -75 24 0 55 -51 55
-90 0 -34 6 -44 59 -89 38 -33 62 -48 66 -40 4 6 4 45 0 86 -6 69 -10 79 -41
108 -52 49 -40 128 24 154 28 12 30 17 46 122 17 109 16 129 -7 129 -7 0 -29
11 -49 25 -20 14 -38 25 -40 25 -2 0 -18 -12 -35 -26z"/>
</g>
</svg>
