<?xml version="1.0" standalone="no"?>
<!DOCTYPE svg PUBLIC "-//W3C//DTD SVG 20010904//EN"
 "http://www.w3.org/TR/2001/REC-SVG-20010904/DTD/svg10.dtd">
<svg version="1.0" xmlns="http://www.w3.org/2000/svg"
 width="1156.000000pt" height="1036.000000pt" viewBox="0 0 1156.000000 1036.000000"
 preserveAspectRatio="xMidYMid meet">

<g transform="translate(0.000000,1036.000000) scale(0.100000,-0.100000)"
fill="#000000" stroke="none">
<path d="M4830 9080 c0 -5 -25 -10 -55 -10 -42 0 -55 -3 -55 -15 0 -9 -9 -15
-25 -15 -14 0 -25 -4 -25 -10 0 -5 -11 -10 -25 -10 -16 0 -25 -6 -25 -15 0 -8
-4 -15 -10 -15 -5 0 -10 -7 -10 -15 0 -8 -7 -15 -15 -15 -8 0 -15 -4 -15 -10
0 -5 -11 -10 -25 -10 -16 0 -25 -6 -25 -15 0 -8 -4 -15 -10 -15 -5 0 -10 -11
-10 -25 0 -16 -6 -25 -15 -25 -8 0 -15 -4 -15 -10 0 -5 -7 -10 -15 -10 -9 0
-15 -9 -15 -25 0 -14 -4 -25 -10 -25 -5 0 -10 -11 -10 -25 0 -16 -6 -25 -15
-25 -10 0 -15 -10 -15 -30 0 -16 -4 -30 -10 -30 -5 0 -10 -11 -10 -25 0 -16
-6 -25 -15 -25 -9 0 -15 -9 -15 -25 0 -14 -4 -25 -10 -25 -5 0 -10 -11 -10
-25 0 -16 -6 -25 -15 -25 -11 0 -15 -11 -15 -40 0 -22 -4 -40 -10 -40 -5 0
-10 -11 -10 -25 0 -16 -6 -25 -15 -25 -9 0 -15 -9 -15 -25 0 -16 -6 -25 -15
-25 -9 0 -15 -9 -15 -25 0 -14 -4 -25 -10 -25 -5 0 -10 -11 -10 -25 0 -16 -6
-25 -15 -25 -9 0 -15 -9 -15 -25 0 -14 -4 -25 -10 -25 -5 0 -10 -18 -10 -40 0
-29 -4 -40 -15 -40 -9 0 -15 -9 -15 -25 0 -14 -4 -25 -10 -25 -5 0 -10 -11
-10 -25 0 -14 -5 -25 -11 -25 -14 0 -39 -25 -39 -39 0 -6 -7 -11 -15 -11 -8 0
-15 -5 -15 -11 0 -14 -25 -39 -39 -39 -6 0 -11 -7 -11 -15 0 -13 -37 -15 -270
-15 l-270 0 0 195 0 195 -585 0 -585 0 0 -195 0 -195 -230 0 c-147 0 -230 -4
-230 -10 0 -6 -48 -10 -125 -10 -104 0 -125 -2 -125 -15 0 -11 -12 -15 -50
-15 -27 0 -50 -4 -50 -10 0 -5 -18 -10 -40 -10 -29 0 -40 -4 -40 -15 0 -9 -9
-15 -25 -15 -14 0 -25 -4 -25 -10 0 -5 -11 -10 -25 -10 -16 0 -25 -6 -25 -15
0 -8 -7 -15 -15 -15 -8 0 -15 -4 -15 -10 0 -5 -11 -10 -25 -10 -16 0 -25 -6
-25 -15 0 -8 -7 -15 -15 -15 -8 0 -15 -7 -15 -15 0 -9 -9 -15 -21 -15 -22 0
-49 -22 -49 -39 0 -6 -5 -11 -11 -11 -14 0 -39 -25 -39 -39 0 -6 -7 -11 -15
-11 -9 0 -15 -9 -15 -21 0 -22 -22 -49 -39 -49 -6 0 -11 -13 -11 -30 0 -16 -4
-30 -10 -30 -5 0 -10 -11 -10 -25 0 -16 -6 -25 -15 -25 -9 0 -15 -9 -15 -25 0
-16 -6 -25 -15 -25 -9 0 -15 -9 -15 -25 0 -14 -4 -25 -10 -25 -5 0 -10 -11
-10 -25 0 -16 -6 -25 -15 -25 -9 0 -15 -9 -15 -25 0 -14 -4 -25 -10 -25 -5 0
-10 -11 -10 -25 0 -16 -6 -25 -15 -25 -11 0 -15 -11 -15 -40 0 -22 -4 -40 -10
-40 -5 0 -10 -16 -10 -35 0 -24 -5 -35 -15 -35 -12 0 -15 -13 -15 -55 0 -30
-4 -55 -10 -55 -5 0 -10 -16 -10 -35 0 -24 -5 -35 -15 -35 -12 0 -15 -14 -15
-65 0 -51 -3 -65 -15 -65 -12 0 -15 -14 -15 -65 0 -37 -4 -65 -10 -65 -6 0
-10 -32 -10 -75 0 -60 -3 -75 -15 -75 -12 0 -15 -17 -15 -90 0 -53 -4 -90 -10
-90 -6 0 -10 -48 -10 -125 0 -104 -2 -125 -15 -125 -13 0 -15 -28 -15 -195 0
-123 -4 -195 -10 -195 -7 0 -10 -232 -10 -675 0 -443 3 -675 10 -675 6 0 10
-92 10 -255 0 -220 2 -255 15 -255 13 0 15 -23 15 -150 0 -93 4 -150 10 -150
6 0 10 -63 10 -170 0 -144 2 -170 15 -170 13 0 15 -23 15 -150 0 -93 4 -150
10 -150 6 0 10 -62 10 -165 0 -140 2 -165 15 -165 13 0 15 -22 15 -140 0 -118
2 -140 15 -140 12 0 15 -19 15 -115 0 -70 4 -115 10 -115 6 0 10 -42 10 -105
0 -87 3 -105 15 -105 11 0 15 -12 15 -50 0 -27 5 -50 10 -50 6 0 10 -11 10
-25 0 -16 6 -25 15 -25 9 0 15 -9 15 -25 0 -14 5 -25 10 -25 6 0 10 -11 10
-25 0 -16 6 -25 15 -25 8 0 15 -7 15 -15 0 -8 5 -15 10 -15 6 0 10 -11 10 -25
0 -16 6 -25 15 -25 8 0 15 -4 15 -10 0 -5 7 -10 15 -10 8 0 15 -7 15 -15 0 -8
5 -15 10 -15 6 0 10 -7 10 -15 0 -8 5 -15 11 -15 14 0 39 -25 39 -39 0 -6 11
-11 25 -11 14 0 25 -4 25 -10 0 -5 7 -10 15 -10 8 0 15 -7 15 -15 0 -9 9 -15
25 -15 14 0 25 -4 25 -10 0 -5 16 -10 35 -10 22 0 38 -6 41 -15 4 -9 19 -15
40 -15 19 0 34 -4 34 -10 0 -6 28 -10 65 -10 51 0 65 -3 65 -15 0 -12 17 -15
90 -15 53 0 90 -4 90 -10 0 -6 95 -10 265 -10 170 0 265 4 265 10 0 6 28 10
65 10 51 0 65 3 65 15 0 11 12 15 50 15 28 0 50 5 50 10 0 6 18 10 40 10 29 0
40 4 40 15 0 11 11 15 40 15 22 0 40 5 40 10 0 6 11 10 25 10 14 0 25 5 25 11
0 17 27 39 49 39 12 0 21 6 21 15 0 9 9 15 25 15 14 0 25 5 25 10 0 6 14 10
30 10 20 0 30 5 30 15 0 9 9 15 25 15 14 0 25 5 25 11 0 17 27 39 49 39 12 0
21 6 21 15 0 12 13 15 55 15 30 0 55 5 55 10 0 7 1162 10 3465 10 3073 0 3465
2 3465 15 0 11 11 15 40 15 22 0 40 5 40 10 0 6 16 10 35 10 24 0 35 5 35 15
0 9 9 15 25 15 14 0 25 5 25 10 0 6 7 10 15 10 8 0 15 7 15 15 0 9 9 15 25 15
16 0 25 6 25 15 0 9 9 15 25 15 14 0 25 5 25 10 0 6 7 10 15 10 8 0 15 5 15
11 0 14 25 39 39 39 6 0 11 5 11 11 0 14 25 39 39 39 6 0 11 7 11 15 0 8 7 15
15 15 9 0 15 9 15 25 0 14 5 25 10 25 6 0 10 11 10 25 0 16 6 25 15 25 9 0 15
9 15 25 0 14 5 25 10 25 6 0 10 18 10 40 0 29 4 40 15 40 13 0 15 26 15 175 0
110 4 175 10 175 6 0 10 92 10 255 0 220 2 255 15 255 13 0 15 42 15 320 0
207 4 320 10 320 7 0 10 415 10 1225 0 810 -3 1225 -10 1225 -6 0 -10 70 -10
190 0 162 -2 190 -15 190 -13 0 -15 21 -15 130 0 80 -4 130 -10 130 -6 0 -10
40 -10 100 0 82 -3 100 -15 100 -12 0 -15 15 -15 75 0 43 -4 75 -10 75 -5 0
-10 25 -10 55 0 42 -3 55 -15 55 -11 0 -15 12 -15 50 0 28 -4 50 -10 50 -5 0
-10 23 -10 50 0 38 -4 50 -15 50 -9 0 -15 9 -15 25 0 16 -6 25 -15 25 -9 0
-15 9 -15 25 0 14 -4 25 -10 25 -5 0 -10 11 -10 25 0 16 -6 25 -15 25 -9 0
-15 9 -15 25 0 14 -4 25 -10 25 -5 0 -10 7 -10 15 0 8 -7 15 -15 15 -8 0 -15
7 -15 15 0 8 -4 15 -10 15 -5 0 -10 11 -10 25 0 14 -5 25 -11 25 -14 0 -39 25
-39 39 0 6 -12 11 -26 11 -26 0 -54 20 -54 39 0 6 -5 11 -11 11 -14 0 -39 25
-39 39 0 6 -11 11 -25 11 -16 0 -25 6 -25 15 0 9 -9 15 -25 15 -14 0 -25 5
-25 10 0 6 -11 10 -25 10 -16 0 -25 6 -25 15 0 10 -10 15 -30 15 -16 0 -30 5
-30 10 0 6 -16 10 -35 10 -24 0 -35 5 -35 15 0 11 -12 15 -50 15 -27 0 -50 5
-50 10 0 7 -327 10 -960 10 -847 0 -960 2 -960 15 0 9 -9 15 -25 15 -14 0 -25
5 -25 10 0 6 -11 10 -25 10 -14 0 -25 5 -25 11 0 14 -25 39 -39 39 -6 0 -11 7
-11 15 0 8 -4 15 -10 15 -5 0 -10 7 -10 15 0 8 -7 15 -15 15 -9 0 -15 9 -15
25 0 16 -6 25 -15 25 -9 0 -15 9 -15 25 0 14 -4 25 -10 25 -5 0 -10 11 -10 25
0 14 -5 25 -11 25 -19 0 -39 28 -39 54 0 16 -6 26 -15 26 -9 0 -15 9 -15 25 0
14 -4 25 -10 25 -5 0 -10 11 -10 25 0 16 -6 25 -15 25 -9 0 -15 9 -15 25 0 14
-4 25 -10 25 -5 0 -10 11 -10 25 0 16 -6 25 -15 25 -9 0 -15 9 -15 25 0 16 -6
25 -15 25 -9 0 -15 9 -15 25 0 14 -4 25 -10 25 -5 0 -10 7 -10 15 0 8 -7 15
-15 15 -9 0 -15 9 -15 25 0 14 -4 25 -10 25 -5 0 -10 11 -10 25 0 16 -6 25
-15 25 -9 0 -15 9 -15 25 0 14 -4 25 -10 25 -5 0 -10 11 -10 25 0 16 -6 25
-15 25 -9 0 -15 9 -15 25 0 14 -4 25 -10 25 -5 0 -10 11 -10 25 0 16 -6 25
-15 25 -8 0 -15 5 -15 11 0 14 -25 39 -39 39 -6 0 -11 7 -11 15 0 8 -5 15 -11
15 -14 0 -39 25 -39 39 0 6 -11 11 -25 11 -16 0 -25 6 -25 15 0 11 -11 15 -40
15 -22 0 -40 5 -40 10 0 6 -48 10 -125 10 -104 0 -125 2 -125 15 0 13 -26 15
-170 15 -107 0 -170 4 -170 10 0 7 -243 10 -710 10 -467 0 -710 -3 -710 -10z
m1350 -75 c0 -13 25 -15 165 -15 140 0 165 -2 165 -15 0 -13 24 -15 155 -15
l155 0 0 -25 c0 -16 -6 -25 -15 -25 -8 0 -15 -4 -15 -10 0 -5 -7 -10 -15 -10
-8 0 -15 -7 -15 -15 0 -8 -4 -15 -10 -15 -5 0 -10 -11 -10 -25 0 -14 -5 -25
-11 -25 -14 0 -39 -25 -39 -39 0 -6 -7 -11 -15 -11 -9 0 -15 -9 -15 -25 0 -14
-4 -25 -10 -25 -5 0 -10 -7 -10 -15 0 -11 -11 -15 -39 -15 -22 0 -42 -6 -45
-12 -5 -10 -7 -10 -12 0 -4 9 -115 12 -504 12 -433 0 -499 2 -504 15 -5 13
-50 15 -321 15 -273 0 -315 2 -315 15 0 8 -4 15 -10 15 -5 0 -10 11 -10 25 0
14 -5 25 -11 25 -14 0 -39 25 -39 39 0 6 -5 11 -11 11 -14 0 -39 25 -39 39 0
6 -7 11 -15 11 -9 0 -15 9 -15 25 0 16 -6 25 -15 25 -8 0 -15 5 -15 10 0 6 7
10 15 10 8 0 15 7 15 15 0 13 84 15 700 15 616 0 700 2 700 15 0 8 7 15 15 15
8 0 15 -7 15 -15z m3620 -1300 c0 -9 9 -15 25 -15 16 0 25 -6 25 -15 0 -9 9
-15 25 -15 14 0 25 -4 25 -10 0 -5 11 -10 25 -10 16 0 25 -6 25 -15 0 -8 5
-15 11 -15 28 0 39 -30 39 -104 0 -58 3 -76 14 -76 10 0 14 -22 15 -97 1 -54
6 -99 11 -101 6 -2 10 -58 10 -128 0 -104 2 -124 15 -124 13 0 15 -22 15 -140
0 -87 4 -140 10 -140 6 0 10 -67 10 -180 0 -153 2 -180 15 -180 13 0 15 -35
15 -255 0 -220 2 -255 15 -255 13 0 15 -148 15 -1270 0 -1011 -3 -1269 -12
-1267 -10 1 -14 -67 -16 -310 -2 -269 -4 -313 -17 -313 -13 0 -15 -35 -15
-245 0 -157 -4 -245 -10 -245 -6 0 -10 -75 -10 -205 0 -176 -2 -205 -15 -205
-12 0 -15 -15 -15 -71 0 -75 -12 -99 -49 -99 -12 0 -21 -6 -21 -15 0 -9 -9
-15 -25 -15 -16 0 -25 -6 -25 -15 0 -8 -7 -15 -15 -15 -13 0 -15 35 -16 248
-1 136 -1 250 0 255 0 4 -4 7 -9 7 -7 0 -10 206 -10 599 0 557 -1 599 -17 605
-15 6 -15 8 -3 16 10 7 11 10 3 10 -10 0 -13 127 -13 600 0 527 -2 600 -15
600 -13 0 -15 74 -15 609 0 396 -4 612 -10 616 -6 4 -10 218 -10 611 0 522 -2
604 -15 604 -12 0 -14 57 -15 400 0 351 1 400 15 400 8 0 15 -7 15 -15z
m-3574 -556 c243 -24 495 -89 731 -189 147 -62 312 -156 323 -183 5 -12 24
-58 41 -102 18 -44 44 -91 57 -104 17 -17 26 -41 32 -82 16 -110 63 -172 130
-169 19 1 40 2 46 1 9 -1 53 -124 68 -193 14 -61 -40 -15 -140 122 -86 116
-134 160 -174 160 -35 0 -70 -31 -70 -60 0 -32 28 -92 57 -122 15 -16 22 -28
15 -28 -19 0 -42 -56 -42 -103 0 -32 7 -54 28 -83 43 -59 69 -69 142 -55 l61
12 50 -36 c57 -42 79 -79 72 -116 -4 -24 -10 -27 -61 -32 -82 -9 -106 -30
-110 -101 -5 -101 69 -224 148 -244 129 -32 230 66 230 226 0 59 20 93 43 73
18 -14 34 -56 72 -184 24 -82 51 -127 75 -127 24 0 50 41 51 83 l1 42 14 -44
c17 -55 40 -81 66 -76 23 5 47 32 48 55 0 8 9 1 21 -17 11 -17 32 -36 47 -41
25 -9 30 -19 55 -121 15 -61 30 -131 33 -154 6 -41 5 -43 -28 -55 -30 -10 -40
-9 -75 8 -47 22 -56 47 -54 139 1 60 -17 91 -52 91 -25 0 -125 -56 -192 -107
-66 -51 -88 -93 -81 -158 20 -190 31 -250 61 -336 18 -53 36 -116 39 -140 4
-24 9 -57 12 -74 6 -29 5 -29 -14 7 -10 20 -22 58 -26 84 -3 26 -10 52 -15 58
-4 6 -14 36 -21 66 -19 88 -78 297 -111 396 -19 60 -39 100 -58 118 -26 25
-77 46 -112 46 -39 0 -135 -119 -160 -199 -6 -20 -19 -54 -30 -76 -48 -101
-168 -385 -177 -420 -9 -34 -17 -158 -13 -202 2 -22 40 -53 65 -53 14 0 31 9
39 21 10 13 17 17 22 9 4 -6 15 -8 25 -5 27 8 33 -10 15 -45 -17 -34 -9 -62
24 -80 14 -7 25 -5 41 8 18 15 22 28 22 73 0 43 -7 68 -36 121 -36 66 -37 69
-27 124 12 65 55 166 82 190 14 13 34 15 104 13 79 -4 89 -6 109 -30 26 -30
46 -137 46 -244 0 -88 11 -110 64 -135 25 -11 49 -20 54 -20 13 0 22 -25 22
-64 0 -36 33 -86 56 -86 21 0 65 -73 71 -117 4 -32 -1 -48 -26 -88 -28 -44
-31 -57 -31 -127 l0 -77 -102 -61 c-57 -34 -182 -101 -278 -149 -628 -312
-1204 -457 -1745 -438 -264 9 -478 50 -703 133 l-101 37 32 45 c53 74 108 118
156 126 65 10 96 46 110 131 15 86 46 156 95 214 57 68 69 97 64 158 -7 78
-35 104 -125 112 -37 4 -78 12 -90 19 -39 21 -76 81 -109 175 -17 50 -38 96
-47 101 -11 7 -31 7 -62 -2 -96 -25 -102 -21 -169 117 -26 52 -56 106 -69 120
-12 13 -16 21 -9 17 20 -12 40 11 56 67 9 29 23 63 32 76 15 21 23 23 67 18
59 -5 82 -27 98 -93 14 -54 31 -69 77 -66 54 4 82 26 82 65 0 39 -155 349
-195 390 -21 21 -35 27 -71 27 -68 0 -101 -38 -160 -185 -26 -66 -54 -129 -61
-140 -30 -45 -6 -112 35 -98 9 4 13 -1 11 -13 -2 -11 0 -24 4 -31 5 -9 0 -9
-23 0 -36 14 -63 1 -68 -31 -2 -11 -11 -26 -20 -34 -13 -11 -14 -11 -7 1 18
31 14 69 -10 95 -30 33 -48 33 -131 0 -64 -26 -96 -28 -182 -10 -38 8 -80 45
-91 79 -22 70 -24 136 -6 198 16 50 27 68 70 105 59 50 77 53 160 24 69 -24
96 -25 134 -5 81 41 38 164 -68 196 -65 19 -201 22 -276 6 -71 -16 -110 -9
-103 16 6 18 103 62 191 87 148 40 401 92 489 100 75 6 95 12 140 41 108 69
120 109 71 222 -26 57 -28 72 -28 202 -1 187 -12 205 -129 205 -49 0 -55 3
-84 39 l-32 40 74 -2 c66 -2 77 1 100 22 21 20 26 34 26 73 0 93 -47 143 -187
202 -104 43 -133 66 -133 102 0 64 48 88 152 78 l67 -7 111 -103 c115 -107
174 -144 227 -144 42 0 87 39 101 89 18 59 58 87 136 96 104 11 140 54 98 116
-9 15 -70 81 -134 148 l-116 121 -54 0 c-33 0 -83 -11 -133 -29 -44 -16 -106
-39 -139 -51 -72 -26 -87 -18 -20 11 223 97 500 167 764 192 83 9 345 6 446
-4z m-4456 -159 c0 -5 16 -10 35 -10 24 0 35 -5 35 -15 0 -9 9 -15 25 -15 16
0 25 -6 25 -15 0 -9 10 -15 26 -15 31 0 54 -21 54 -49 0 -12 6 -21 15 -21 11
0 15 -12 15 -50 0 -38 -4 -50 -15 -50 -8 0 -15 -5 -15 -11 0 -14 -25 -39 -39
-39 -6 0 -11 -7 -11 -15 0 -9 -9 -15 -25 -15 -16 0 -25 -6 -25 -15 0 -9 -9
-15 -25 -15 -14 0 -25 -4 -25 -10 0 -5 -22 -10 -50 -10 -38 0 -50 -4 -50 -15
0 -12 -18 -15 -105 -15 -87 0 -105 3 -105 15 0 11 -12 15 -50 15 -27 0 -50 5
-50 10 0 6 -11 10 -25 10 -16 0 -25 6 -25 15 0 9 -9 15 -25 15 -16 0 -25 6
-25 15 0 8 -5 15 -11 15 -21 0 -39 29 -39 64 0 25 -4 36 -15 36 -8 0 -15 5
-15 10 0 6 7 10 15 10 9 0 15 9 15 25 0 14 5 25 10 25 6 0 10 7 10 15 0 8 5
15 11 15 14 0 39 25 39 39 0 6 11 11 25 11 16 0 25 6 25 15 0 11 11 15 40 15
22 0 40 5 40 10 0 6 58 10 155 10 97 0 155 -4 155 -10z m3664 -87 c145 -140
180 -192 140 -207 -10 -4 -46 -11 -81 -16 -85 -12 -108 -28 -146 -108 -29 -61
-35 -67 -65 -70 -47 -5 -105 33 -215 137 -50 48 -101 93 -112 98 -20 11 -111
18 -172 15 -48 -3 -103 -59 -103 -106 0 -61 24 -83 156 -147 141 -68 164 -90
164 -160 0 -38 -4 -51 -20 -59 -21 -11 -143 -4 -172 11 -9 5 -29 41 -44 80
-31 79 -56 102 -106 97 -51 -5 -60 -32 -53 -163 8 -135 4 -142 -82 -153 -73
-10 -103 -32 -103 -74 0 -23 16 -46 78 -109 113 -115 149 -108 176 33 22 115
77 208 123 208 11 0 36 -20 56 -45 38 -45 39 -45 101 -45 89 0 91 -3 92 -169
0 -125 2 -141 28 -203 40 -97 35 -123 -36 -172 -53 -36 -65 -40 -146 -46 -48
-3 -92 -9 -98 -12 -5 -4 -77 -20 -159 -37 -314 -64 -455 -121 -455 -181 0 -23
30 -52 63 -61 12 -3 47 0 77 7 69 17 170 17 244 3 66 -14 109 -54 104 -98 -5
-42 -45 -49 -126 -23 -38 12 -78 22 -91 22 -61 0 -161 -97 -185 -181 -20 -66
-20 -93 0 -179 23 -102 72 -140 207 -157 39 -5 61 0 118 22 78 32 104 28 104
-16 0 -16 -11 -29 -35 -43 -31 -18 -52 -21 -173 -21 -112 0 -140 -3 -147 -15
-15 -24 8 -38 80 -49 97 -16 170 -13 234 8 78 28 113 50 127 83 13 33 12 32
49 13 23 -12 42 -42 85 -130 63 -131 87 -153 159 -140 89 15 88 15 106 -45 35
-116 98 -205 163 -229 16 -6 50 -11 76 -11 56 0 78 -14 90 -56 11 -40 -6 -89
-51 -145 -54 -68 -75 -109 -93 -179 -39 -154 -30 -138 -93 -156 -31 -9 -68
-25 -82 -36 -24 -19 -97 -101 -124 -140 -14 -20 -16 -20 -108 30 -175 93 -158
76 -158 162 0 121 -25 172 -110 230 -37 25 -67 55 -79 78 -22 45 -91 243 -91
263 0 8 16 47 35 88 39 82 44 128 16 162 -16 20 -28 24 -77 24 l-59 0 -31 48
c-17 27 -69 92 -114 145 -47 55 -96 124 -113 160 -27 58 -29 69 -22 125 14
110 15 131 4 180 -14 61 -63 104 -161 142 -173 67 -200 89 -200 166 1 41 11
73 49 152 l48 101 -3 115 c-2 92 3 141 22 233 13 64 28 124 33 132 16 29 173
212 223 261 48 47 55 50 112 55 70 6 67 1 82 130 9 72 16 83 47 72 35 -14 69
2 69 32 0 40 11 56 37 56 37 0 71 22 184 115 126 104 187 129 245 101 37 -17
53 -16 113 12 71 33 198 70 240 71 42 1 48 -3 135 -86z m3496 -43 c0 -5 18
-10 40 -10 22 0 40 -5 40 -11 0 -6 6 -17 14 -25 8 -8 19 -14 25 -14 6 0 11 -5
11 -11 0 -6 6 -17 14 -25 8 -8 19 -14 25 -14 6 0 11 -11 11 -25 0 -16 6 -25
15 -25 12 0 15 -14 15 -65 0 -51 -3 -65 -15 -65 -9 0 -15 -9 -15 -25 0 -16 -6
-25 -15 -25 -9 0 -15 -9 -15 -25 0 -14 -4 -25 -10 -25 -5 0 -10 -7 -10 -15 0
-9 -9 -15 -25 -15 -16 0 -25 -6 -25 -15 0 -9 -9 -15 -25 -15 -14 0 -25 -4 -25
-10 0 -6 -28 -10 -65 -10 -37 0 -65 4 -65 10 0 6 -11 10 -25 10 -16 0 -25 6
-25 15 0 9 -9 15 -25 15 -16 0 -25 6 -25 15 0 8 -7 15 -15 15 -9 0 -15 9 -15
25 0 14 -4 25 -10 25 -5 0 -10 11 -10 25 0 16 -6 25 -15 25 -12 0 -15 14 -15
65 0 51 3 65 15 65 9 0 15 9 15 21 0 22 22 49 39 49 6 0 11 5 11 11 0 6 6 17
14 25 8 8 19 14 25 14 6 0 11 7 11 15 0 11 11 15 40 15 22 0 40 5 40 10 0 6
16 10 35 10 19 0 35 -4 35 -10z m-1527 -129 c184 -125 401 -351 613 -641 136
-185 201 -286 227 -353 27 -67 36 -106 17 -77 -15 23 -26 3 -44 -81 -9 -42
-23 -84 -30 -95 -12 -16 -17 -8 -42 72 -22 66 -34 90 -48 92 -28 6 -36 -15
-36 -95 0 -40 -4 -73 -9 -73 -11 0 -34 59 -60 156 -10 40 -24 81 -30 92 -16
30 -59 61 -79 57 -9 -2 -20 -4 -24 -4 -16 -2 -30 -47 -38 -127 -10 -93 -28
-132 -73 -159 -40 -24 -106 -25 -139 -3 -58 38 -114 206 -80 240 6 6 40 14 74
16 76 5 88 17 88 86 0 50 -2 52 -65 112 -36 34 -65 69 -65 78 0 47 -88 153
-170 206 -70 45 -104 129 -57 138 31 6 65 -25 138 -126 86 -117 115 -149 152
-168 73 -39 87 26 37 173 -32 98 -52 119 -107 114 -58 -5 -89 34 -104 132 -13
82 -18 97 -33 97 -7 0 -22 19 -34 43 -29 58 -63 147 -56 147 3 0 37 -22 77
-49z m-3087 -275 c-5 -19 -11 -22 -31 -18 l-26 5 28 29 c29 30 39 24 29 -16z
m409 -93 c15 -38 36 -78 47 -90 l20 -21 -21 -7 c-52 -16 -114 -120 -132 -222
-20 -116 -29 -119 -111 -32 -84 87 -87 96 -44 114 20 8 52 15 71 15 80 0 100
40 89 184 -8 109 -4 126 30 126 20 0 28 -10 51 -67z m-3925 -138 c0 -9 9 -15
21 -15 22 0 49 -22 49 -39 0 -6 14 -11 30 -11 20 0 30 -5 30 -15 0 -9 9 -15
25 -15 14 0 25 -4 25 -10 0 -5 11 -10 25 -10 16 0 25 -6 25 -15 0 -11 12 -15
50 -15 28 0 50 -4 50 -10 0 -6 28 -10 65 -10 51 0 65 -3 65 -15 0 -13 22 -15
140 -15 87 0 140 -4 140 -10 0 -6 40 -10 100 -10 82 0 100 -3 100 -15 0 -8 7
-15 15 -15 11 0 15 -11 15 -40 0 -36 -2 -40 -25 -40 -14 0 -25 -4 -25 -10 0
-5 -18 -10 -40 -10 -29 0 -40 -4 -40 -15 0 -12 -17 -15 -90 -15 -53 0 -90 -4
-90 -10 0 -6 -48 -10 -125 -10 -77 0 -125 4 -125 10 0 6 -28 10 -65 10 -51 0
-65 3 -65 15 0 11 -11 15 -40 15 -22 0 -40 5 -40 10 0 6 -16 10 -35 10 -24 0
-35 5 -35 15 0 8 -7 15 -15 15 -8 0 -15 7 -15 15 0 9 -9 15 -25 15 -14 0 -25
5 -25 10 0 6 -7 10 -15 10 -8 0 -15 5 -15 11 0 14 -25 39 -39 39 -6 0 -11 11
-11 25 0 14 -4 25 -10 25 -5 0 -10 11 -10 25 0 16 -6 25 -15 25 -10 0 -15 10
-15 30 0 17 5 30 11 30 14 0 39 25 39 39 0 6 7 11 15 11 8 0 15 -7 15 -15z
m6643 -85 c43 -38 86 -115 71 -130 -6 -6 -34 -13 -62 -17 -46 -5 -54 -3 -72
18 -47 54 -57 109 -28 147 17 21 56 13 91 -18z m-3585 -262 c-6 -25 -7 -87 -3
-146 l6 -103 -48 -102 c-40 -85 -48 -114 -51 -173 -4 -70 -3 -72 31 -106 21
-21 67 -48 113 -67 134 -55 184 -82 202 -109 17 -26 20 -80 11 -227 -4 -63 -1
-76 28 -135 18 -36 71 -109 118 -163 47 -54 92 -111 100 -126 8 -16 29 -41 46
-55 27 -23 40 -27 83 -24 l51 3 3 -34 c2 -23 -6 -52 -28 -92 -45 -84 -42 -125
15 -281 49 -134 49 -134 164 -226 47 -38 64 -83 59 -161 l-3 -54 -105 79
c-264 198 -516 496 -720 853 -75 131 -220 428 -220 451 0 5 -4 11 -8 14 -12 7
15 -243 42 -394 14 -74 43 -201 66 -281 263 -958 877 -1571 1751 -1749 691
-141 1503 163 2196 824 l92 87 -38 -88 c-20 -48 -71 -139 -111 -202 -41 -63
-76 -129 -79 -149 -5 -30 -20 -47 -91 -105 -263 -214 -592 -382 -912 -467
-208 -54 -334 -72 -568 -77 -317 -8 -554 26 -829 117 -877 292 -1505 1042
-1648 1970 -25 163 -25 529 1 695 23 150 74 353 121 481 36 96 159 364 168
364 3 0 0 -19 -5 -42z m4449 -368 c5 -43 5 -44 -12 -28 -19 18 -32 85 -26 133
4 29 4 28 18 -15 7 -25 16 -65 20 -90z m-7507 -25 c0 -8 5 -15 10 -15 6 0 10
-82 10 -225 0 -191 2 -227 15 -231 13 -5 15 -69 15 -489 0 -312 4 -486 10
-490 6 -4 10 -158 10 -431 0 -370 2 -424 15 -424 13 0 15 -46 15 -350 0 -275
3 -349 13 -348 9 2 13 -56 15 -262 1 -156 6 -268 12 -274 14 -14 13 -376 0
-376 -5 0 -10 -7 -10 -15 0 -10 -10 -15 -30 -15 -27 0 -30 3 -30 30 0 17 -4
30 -10 30 -5 0 -10 11 -10 25 0 16 -6 25 -15 25 -11 0 -15 12 -15 50 0 28 -4
50 -10 50 -6 0 -10 40 -10 100 0 82 -3 100 -15 100 -13 0 -15 21 -15 130 0 80
-4 130 -10 130 -6 0 -10 57 -10 150 0 127 -2 150 -15 150 -13 0 -15 25 -15
165 0 103 -4 165 -10 165 -6 0 -10 63 -10 170 0 144 -2 170 -15 170 -13 0 -15
26 -15 175 0 149 -2 175 -15 175 -13 0 -15 25 -15 165 0 103 -4 165 -10 165
-7 0 -10 250 -10 729 0 476 3 732 10 736 6 3 10 33 10 66 0 46 3 59 15 59 8 0
15 5 15 10 0 6 7 10 15 10 8 0 15 7 15 15 0 11 12 15 50 15 38 0 50 -4 50 -15z
m7390 -254 c0 -104 12 -128 79 -157 44 -20 60 -23 79 -15 36 17 39 14 59 -41
27 -78 24 -418 -5 -615 -58 -388 -144 -644 -308 -914 -84 -139 -225 -345 -289
-422 -51 -62 -129 -126 -140 -115 -3 2 31 61 76 131 44 70 93 161 108 202 33
84 53 116 129 198 52 56 82 109 82 142 0 8 18 41 40 73 44 66 90 158 90 185 0
14 -11 9 -59 -23 -32 -22 -63 -40 -69 -40 -21 0 -1 113 29 166 36 65 36 94 0
171 -23 49 -37 65 -63 76 -31 13 -34 17 -43 83 l-10 69 -37 3 c-21 2 -38 8
-38 13 0 5 -11 14 -25 19 -23 9 -25 14 -25 77 0 80 -23 231 -40 263 -19 36
-86 60 -167 60 -39 0 -83 -4 -97 -9 -49 -19 -116 -173 -116 -269 0 -44 6 -65
31 -106 17 -28 25 -45 18 -38 -7 6 -23 12 -34 12 -18 0 -21 5 -17 29 3 23 -1
33 -22 46 -48 32 -84 -3 -66 -65 5 -17 5 -30 0 -30 -41 0 -28 170 22 290 179
431 231 538 277 568 20 14 28 14 65 1 33 -11 45 -23 63 -59 25 -50 173 -562
173 -598 0 -12 9 -39 20 -59 11 -21 20 -47 20 -58 0 -21 55 -95 70 -95 17 0
19 33 9 103 -6 40 -13 90 -15 112 -3 22 -20 88 -40 146 -19 58 -39 141 -44
185 -5 43 -12 103 -16 131 -9 75 6 105 84 159 75 53 131 84 149 84 9 0 13 -20
13 -69z m-3120 -168 c10 -13 56 -97 100 -185 87 -172 88 -178 28 -192 -25 -6
-28 -3 -42 46 -9 29 -22 61 -30 70 -31 41 -143 63 -179 36 -9 -7 -28 -37 -43
-67 l-27 -54 -14 26 c-7 15 -20 27 -28 27 -16 0 -20 16 -6 24 4 3 32 65 62
137 42 103 60 136 82 149 35 21 72 15 97 -17z m2320 -624 c0 -6 -4 -7 -10 -4
-5 3 -10 11 -10 16 0 6 5 7 10 4 6 -3 10 -11 10 -16z m104 -134 c-5 -19 -9
-23 -15 -14 -4 7 -3 21 3 32 13 26 21 15 12 -18z"/>
<path d="M5903 5303 c-41 -8 -85 -68 -151 -205 -37 -76 -69 -138 -72 -138 -3
0 -33 59 -67 130 -76 157 -119 210 -172 210 -39 -1 -58 -12 -84 -50 -15 -22
-17 -59 -17 -331 0 -315 5 -360 40 -379 30 -16 97 -12 116 7 14 15 16 36 12
181 l-4 164 30 -54 c39 -68 96 -124 132 -131 59 -11 108 31 180 156 l24 42 0
-147 c0 -160 6 -188 45 -214 22 -14 32 -15 65 -5 22 6 44 20 50 31 5 10 10 61
10 112 0 141 -19 470 -30 530 -14 72 -49 102 -107 91z m-430 -53 c15 -12 60
-87 102 -171 42 -83 83 -153 92 -156 29 -11 48 13 118 155 70 142 93 175 130
186 52 15 61 -21 74 -299 6 -115 13 -245 16 -287 4 -71 3 -79 -18 -93 -29 -20
-54 -19 -67 4 -6 12 -10 92 -10 191 0 243 -17 261 -97 108 -46 -87 -99 -148
-128 -148 -25 0 -79 56 -119 123 -55 96 -81 113 -98 66 -4 -9 -3 -82 2 -162
10 -186 8 -197 -36 -197 -22 0 -37 6 -43 19 -15 26 -15 614 -1 640 9 19 37 40
51 41 4 0 18 -9 32 -20z"/>
<path d="M6177 5302 c-27 -5 -54 -70 -66 -156 -13 -89 -14 -372 -2 -495 12
-122 9 -120 242 -121 174 0 188 1 213 21 18 14 26 30 26 52 -1 86 -15 93 -195
101 -71 4 -133 10 -137 14 -5 5 -5 29 -2 55 l7 47 136 0 c152 0 174 7 186 60
9 41 -3 88 -26 100 -10 6 -81 14 -156 18 l-138 7 -3 42 c-6 77 -2 79 160 87
78 4 148 12 155 18 8 6 13 32 13 64 0 57 -16 84 -53 85 -92 3 -347 3 -360 1z
m373 -62 c4 -14 3 -36 -1 -48 -8 -21 -13 -22 -129 -22 -146 0 -184 -12 -194
-60 -12 -64 -7 -100 19 -125 22 -23 32 -25 132 -26 146 -2 167 -7 171 -42 6
-52 -7 -57 -155 -57 -74 0 -143 -5 -154 -10 -16 -9 -19 -22 -19 -86 0 -93 -3
-91 185 -101 l140 -8 3 -34 c2 -18 -1 -38 -7 -44 -10 -10 -332 -20 -363 -11
-32 10 -38 62 -35 339 3 265 9 313 40 353 7 9 52 12 185 10 l176 -3 6 -25z"/>
<path d="M6829 5291 c-68 -10 -102 -31 -126 -79 -16 -34 -18 -67 -18 -352 0
-173 3 -325 7 -337 7 -21 14 -23 77 -23 95 0 103 12 87 133 -7 56 -7 57 17 57
51 0 177 -144 177 -202 0 -29 27 -57 53 -53 11 2 27 -10 44 -36 30 -45 63 -52
87 -17 26 37 17 97 -32 220 -15 37 -121 147 -175 183 l-28 18 53 35 c29 19 66
46 82 61 117 106 68 336 -82 379 -54 15 -159 21 -223 13z m239 -62 c55 -27 92
-96 92 -174 0 -74 -25 -111 -116 -175 -43 -31 -80 -63 -82 -72 -2 -10 26 -39
73 -78 85 -69 145 -142 145 -175 0 -13 8 -42 19 -65 18 -39 18 -74 1 -85 -4
-3 -20 14 -35 36 -22 34 -31 40 -50 35 -21 -5 -24 -2 -30 32 -15 88 -148 222
-220 222 -52 0 -60 -19 -47 -103 6 -39 9 -75 6 -79 -3 -4 -26 -8 -52 -8 l-47
0 -3 295 c-3 308 2 357 38 390 45 40 228 42 308 4z"/>
<path d="M6884 5140 c-44 -14 -64 -60 -64 -149 0 -59 4 -75 21 -92 17 -17 29
-20 56 -16 79 13 141 86 145 172 3 41 -1 50 -23 67 -30 23 -91 31 -135 18z
m110 -36 c21 -8 21 -66 0 -110 -19 -40 -29 -49 -77 -69 -32 -13 -37 -13 -51 1
-20 20 -21 103 -2 149 14 33 17 35 65 35 27 0 56 -3 65 -6z"/>
<path d="M7608 5033 c-20 -22 -48 -89 -48 -113 0 -23 20 -30 80 -30 105 0 123
30 70 113 -24 38 -35 47 -58 47 -16 0 -36 -8 -44 -17z m80 -61 l23 -42 -60 0
-61 0 22 45 c27 56 44 55 76 -3z"/>
<path d="M4971 4974 c-46 -58 -8 -106 69 -87 43 10 52 46 20 86 -27 35 -62 35
-89 1z m57 -16 c21 -21 13 -38 -18 -38 -28 0 -29 1 -18 25 13 28 19 30 36 13z"/>
</g>
</svg>
